<svg width="1059" height="772" viewBox="0 0 1059 772" fill="none" xmlns="http://www.w3.org/2000/svg">
<path d="M132.244 397.439L144.535 402.935L131.986 407.806L126.493 420.101L121.624 407.567L109.332 402.071L121.881 397.182L127.375 384.886L132.244 397.439Z" fill="white" stroke="#3A3836" stroke-width="3" stroke-miterlimit="10"/>
<path d="M503.847 104.855L510.461 107.814L503.718 110.443L500.76 117.059L498.133 110.296L491.518 107.355L498.261 104.727L501.219 98.11L503.847 104.855Z" fill="#3A3836"/>
<path d="M178.949 369.705C181.405 369.705 183.395 367.713 183.395 365.257C183.395 362.8 181.405 360.809 178.949 360.809C176.493 360.809 174.503 362.8 174.503 365.257C174.503 367.713 176.493 369.705 178.949 369.705Z" fill="#E7F0FF"/>
<path d="M266.168 411.114L279.93 415.598L266.168 420.083L261.685 433.849L257.128 420.083L243.366 415.598L257.128 411.114L261.611 397.348L266.168 411.114Z" fill="white" stroke="#3A3836" stroke-width="3" stroke-miterlimit="10"/>
<path d="M893.002 194.731H326.787C309.151 194.731 294.854 209.033 294.854 226.675V563.517C294.854 581.159 309.151 595.46 326.787 595.46H893.002C910.638 595.46 924.935 581.159 924.935 563.517V226.675C924.935 209.033 910.638 194.731 893.002 194.731Z" fill="white"/>
<path d="M893.002 194.731H326.787C309.151 194.731 294.854 209.033 294.854 226.675V563.517C294.854 581.159 309.151 595.46 326.787 595.46H893.002C910.638 595.46 924.935 581.159 924.935 563.517V226.675C924.935 209.033 910.638 194.731 893.002 194.731Z" stroke="#393836" stroke-width="3" stroke-miterlimit="10"/>
<path d="M329.543 244.889C335.621 244.889 340.549 239.96 340.549 233.88C340.549 227.799 335.621 222.87 329.543 222.87C323.465 222.87 318.537 227.799 318.537 233.88C318.537 239.96 323.465 244.889 329.543 244.889Z" fill="white" stroke="#393836" stroke-width="3" stroke-miterlimit="10"/>
<path d="M369.671 244.889C375.749 244.889 380.676 239.96 380.676 233.88C380.676 227.799 375.749 222.87 369.671 222.87C363.592 222.87 358.665 227.799 358.665 233.88C358.665 239.96 363.592 244.889 369.671 244.889Z" fill="white" stroke="#393836" stroke-width="3" stroke-miterlimit="10"/>
<path d="M409.78 244.889C415.858 244.889 420.786 239.96 420.786 233.88C420.786 227.799 415.858 222.87 409.78 222.87C403.702 222.87 398.774 227.799 398.774 233.88C398.774 239.96 403.702 244.889 409.78 244.889Z" fill="white" stroke="#393836" stroke-width="3" stroke-miterlimit="10"/>
<path d="M1002.68 364.739L1014.98 370.234L1002.43 375.105L996.934 387.401L992.065 374.847L979.773 369.352L992.322 364.481L997.815 352.185L1002.68 364.739Z" fill="white" stroke="#3A3836" stroke-width="3" stroke-miterlimit="10"/>
<path d="M795.056 122.306H604.672C599.234 122.306 594.826 126.715 594.826 132.153V277.187C594.826 282.625 599.234 287.033 604.672 287.033H795.056C800.495 287.033 804.903 282.625 804.903 277.187V132.153C804.903 126.715 800.495 122.306 795.056 122.306Z" fill="#3A3836" stroke="#3A3836" stroke-width="3" stroke-linecap="round" stroke-linejoin="round"/>
<path d="M802.698 116.713H612.315C606.877 116.713 602.468 121.121 602.468 126.559V271.593C602.468 277.032 606.877 281.44 612.315 281.44H802.698C808.137 281.44 812.545 277.032 812.545 271.593V126.559C812.545 121.121 808.137 116.713 802.698 116.713Z" fill="white" stroke="#3A3836" stroke-width="3" stroke-linecap="round" stroke-linejoin="round"/>
<path d="M663.763 139.806H620.103V159.454H663.763V139.806Z" fill="#E4D8F6"/>
<path d="M790.682 172.769H620.103V192.418H790.682V172.769Z" fill="#E4D8F6"/>
<path d="M710.243 205.733H620.103V225.381H710.243V205.733Z" fill="#E4D8F6"/>
<path d="M763.022 139.795H663.763V159.454H763.022V139.795Z" fill="#E6E6E6"/>
<path d="M790.692 172.769H705.901V192.418H790.692V172.769Z" fill="#E6E6E6"/>
<path d="M710.252 205.745H647.593V225.393H710.252V205.745Z" fill="#E6E6E6"/>
<path d="M718.792 238.696V258.356H666.314C662.924 258.356 660.194 255.614 660.194 252.235V244.828C660.194 241.449 662.924 238.707 666.314 238.707H718.792V238.696Z" fill="#E6E6E6"/>
<path d="M676.071 238.696H620.103V258.356H676.071V238.696Z" fill="#E4D8F6"/>
<path d="M762.728 366.519H564.112V378.804H762.728V366.519Z" fill="#D5D4D4"/>
<path d="M663.763 138.273V160.976" stroke="white" stroke-width="3" stroke-miterlimit="10"/>
<path d="M560.017 470.946H639.361" stroke="#ABAAAA" stroke-width="4"/>
<path d="M676.218 470.946H651.135" stroke="#ABAAAA" stroke-width="4"/>
<path d="M763.24 470.946H718.705" stroke="#ABAAAA" stroke-width="4"/>
<path d="M812.382 470.946H767.847" stroke="#ABAAAA" stroke-width="4"/>
<path d="M696.693 470.946L686.967 470.946" stroke="#ABAAAA" stroke-width="4"/>
<path d="M551.847 465.65L547.199 474.194" stroke="#ABAAAA" stroke-width="4"/>
<path d="M705.396 474.017H702.324" stroke="#ABAAAA" stroke-width="4"/>
<path d="M705.396 466.85H702.324" stroke="#ABAAAA" stroke-width="4"/>
<path d="M713.586 466.85H710.515" stroke="#ABAAAA" stroke-width="4"/>
<path d="M713.586 474.017H710.515" stroke="#ABAAAA" stroke-width="4"/>
<path d="M799.565 489.374L720.221 489.374" stroke="#ABAAAA" stroke-width="4"/>
<path d="M655.23 489.374L708.447 489.374" stroke="#ABAAAA" stroke-width="4"/>
<path d="M596.342 489.374L640.877 489.374" stroke="#ABAAAA" stroke-width="4"/>
<path d="M547.199 489.374L591.734 489.374" stroke="#ABAAAA" stroke-width="4"/>
<path d="M807.735 494.669L812.382 486.126" stroke="#ABAAAA" stroke-width="4"/>
<path d="M645.996 493.469L649.067 493.469" stroke="#ABAAAA" stroke-width="4"/>
<path d="M645.996 486.303L649.067 486.303" stroke="#ABAAAA" stroke-width="4"/>
<path d="M799.565 530.326L720.221 530.326" stroke="#ABAAAA" stroke-width="4"/>
<path d="M683.364 530.326L708.447 530.326" stroke="#ABAAAA" stroke-width="4"/>
<path d="M670.075 549.778L729.455 549.778" stroke="#ABAAAA" stroke-width="4"/>
<path d="M635.778 549.778L658.301 549.778" stroke="#ABAAAA" stroke-width="4"/>
<path d="M605.064 549.778L627.587 549.778" stroke="#ABAAAA" stroke-width="4"/>
<path d="M670.075 570.254L729.455 570.254" stroke="#ABAAAA" stroke-width="4"/>
<path d="M635.778 570.254L658.301 570.254" stroke="#ABAAAA" stroke-width="4"/>
<path d="M662.888 530.326L672.614 530.326" stroke="#ABAAAA" stroke-width="4"/>
<path d="M807.735 535.621L812.382 527.077" stroke="#ABAAAA" stroke-width="4"/>
<path d="M654.186 527.254L657.257 527.254" stroke="#ABAAAA" stroke-width="4"/>
<path d="M654.186 534.421L657.257 534.421" stroke="#ABAAAA" stroke-width="4"/>
<path d="M645.996 534.421L649.067 534.421" stroke="#ABAAAA" stroke-width="4"/>
<path d="M645.996 527.254L649.067 527.254" stroke="#ABAAAA" stroke-width="4"/>
<path d="M560.017 511.897L639.361 511.897" stroke="#ABAAAA" stroke-width="4"/>
<path d="M704.352 511.897L651.135 511.897" stroke="#ABAAAA" stroke-width="4"/>
<path d="M763.24 511.897L718.705 511.897" stroke="#ABAAAA" stroke-width="4"/>
<path d="M812.382 511.897L767.847 511.897" stroke="#ABAAAA" stroke-width="4"/>
<path d="M551.847 506.602L547.199 515.146" stroke="#ABAAAA" stroke-width="4"/>
<path d="M713.586 507.802L710.515 507.802" stroke="#ABAAAA" stroke-width="4"/>
<path d="M713.586 514.969L710.515 514.969" stroke="#ABAAAA" stroke-width="4"/>
<path d="M705.901 171.249V193.94" stroke="white" stroke-width="3" stroke-miterlimit="10"/>
<path d="M647.594 204.212V226.915" stroke="white" stroke-width="3" stroke-miterlimit="10"/>
<path d="M676.071 237.577V260.281" stroke="white" stroke-width="3" stroke-miterlimit="10"/>
<path d="M260.997 181.974C260.972 177.334 259.968 172.751 258.05 168.526C256.259 164.574 253.527 161.121 250.094 158.467C246.94 156.014 243.134 154.542 239.15 154.232C235.216 153.965 231.294 154.892 227.896 156.891C225.756 149.821 221.709 143.477 216.199 138.557C211.193 134.084 204.816 131.443 198.113 131.065C191.467 130.821 184.942 132.886 179.646 136.908C173.877 141.332 169.478 147.299 166.96 154.119C163.341 150.936 158.805 148.984 154.006 148.543C149.286 148.188 144.58 149.39 140.609 151.965C136.273 154.774 132.794 158.72 130.55 163.373C128.124 168.374 126.893 173.87 126.954 179.429L260.997 181.974Z" fill="#FFDE83"/>
<rect x="318.401" y="271.306" width="132.07" height="161.76" rx="10" fill="#E6E6E6" fill-opacity="0.5"/>
<rect x="491.423" y="448.422" width="390.066" height="147.426" rx="10" fill="#E6E6E6" fill-opacity="0.5"/>
<rect x="782.18" y="349.114" width="97.2605" height="45.047" fill="#ADCDFB"/>
<rect x="544.112" y="349.59" width="335.876" height="45.1184" rx="8.5" stroke="#3A3836" stroke-width="3"/>
<mask id="mask0_4765_5725" style="mask-type:luminance" maskUnits="userSpaceOnUse" x="0" y="265" width="577" height="418">
<path d="M0.000793457 265.163H576.397V682.522H0.000793457V265.163Z" fill="white"/>
</mask>
<g mask="url(#mask0_4765_5725)">
<path d="M148.727 383.501C148.727 383.501 159.419 393.028 167.077 405.428C168.624 407.961 170.072 410.594 171.257 413.307C171.257 413.307 197.465 428.139 254.524 407.217C265.779 403.117 278.26 408.584 282.883 419.638C287.666 431.074 282.26 444.198 270.844 448.981C258.524 454.126 242.505 458.849 225.563 461.985L141.894 470.305L148.767 383.461L148.727 383.501Z" fill="white" stroke="#3A3836" stroke-width="3" stroke-linecap="round" stroke-linejoin="round"/>
<path d="M273.738 368.245H485.331C496.431 368.245 505.429 377.243 505.429 388.343V599.937C505.429 611.037 496.431 620.035 485.331 620.035H273.738C262.637 620.035 253.639 611.037 253.639 599.937V388.343C253.639 377.243 262.637 368.245 273.738 368.245Z" fill="#FFF4BE" stroke="#3A3836" stroke-width="3" stroke-miterlimit="10"/>
<path d="M259.667 368.245H471.261C482.361 368.245 491.359 377.243 491.359 388.343V599.937C491.359 611.037 482.361 620.035 471.261 620.035H259.667C248.567 620.035 239.569 611.037 239.569 599.937V388.343C239.569 377.243 248.567 368.245 259.667 368.245Z" fill="#FFF4BE" stroke="#3A3836" stroke-width="3" stroke-miterlimit="10"/>
<path d="M250.283 620.036H529.688C535.235 620.036 539.737 624.538 539.737 630.085V656.313C539.737 661.86 535.235 666.362 529.688 666.362H521.809C521.005 674.321 514.272 680.531 506.113 680.531C497.39 680.531 490.335 673.457 490.335 664.754C490.335 660.795 491.803 657.197 494.214 654.424L493.089 652.233C491.36 648.897 487.924 646.806 484.165 646.806H295.886C292.127 646.806 288.691 648.897 286.962 652.233L285.837 654.424C288.248 657.197 289.716 660.795 289.716 664.754C289.716 673.477 282.641 680.531 273.938 680.531C265.759 680.531 259.046 674.321 258.242 666.362H250.363C244.816 666.362 240.314 661.86 240.314 656.313V630.085C240.314 624.538 244.816 620.036 250.363 620.036H250.283Z" fill="#C0A8E1" stroke="#C0A8E1" stroke-width="3" stroke-linecap="round" stroke-linejoin="round"/>
<path d="M233.682 680.511C224.967 680.511 217.904 673.446 217.904 664.733C217.904 656.021 224.967 648.956 233.682 648.956C242.394 648.956 249.459 656.021 249.459 664.733C249.459 673.446 242.394 680.511 233.682 680.511Z" fill="white" stroke="#3A3836" stroke-width="3" stroke-linecap="round" stroke-linejoin="round"/>
<path d="M465.895 680.511C457.182 680.511 450.118 673.446 450.118 664.733C450.118 656.021 457.182 648.956 465.895 648.956C474.609 648.956 481.672 656.021 481.672 664.733C481.672 673.446 474.609 680.511 465.895 680.511Z" fill="white" stroke="#3A3836" stroke-width="3" stroke-linecap="round" stroke-linejoin="round"/>
<path d="M489.491 620.036H529.688C535.235 620.036 539.737 624.538 539.737 630.085V656.313C539.737 661.86 535.235 666.362 529.688 666.362H489.491V620.036Z" fill="#C0A8E1" stroke="#3A3836" stroke-width="3" stroke-linecap="round" stroke-linejoin="round"/>
<path d="M200.037 630.085V656.313C200.037 661.86 204.539 666.362 210.086 666.362H233.3C237.058 666.362 240.495 664.272 242.223 660.935L246.725 652.213C248.454 648.876 251.89 646.786 255.649 646.786H443.928C447.687 646.786 451.123 648.876 452.852 652.213L457.354 660.935C459.082 664.272 462.519 666.362 466.278 666.362H489.491C495.038 666.362 499.54 661.86 499.54 656.313V630.085C499.54 624.538 495.038 620.036 489.491 620.036H210.086C204.539 620.036 200.037 624.538 200.037 630.085Z" fill="#E4D8F6" stroke="#3A3836" stroke-width="3" stroke-linecap="round" stroke-linejoin="round"/>
<path d="M44.7789 680.511C46.4672 680.511 48.2157 680.33 49.9844 679.968C58.1643 678.28 64.9776 672.632 68.1532 664.914L112.249 557.731L127.965 555.299L138.035 564.423C142.275 568.242 143.903 574.171 142.215 579.618L121.253 637.48C116.329 653.459 128.408 669.296 144.647 669.296C145.431 669.296 146.235 669.256 147.039 669.175C156.585 668.271 164.725 661.92 167.901 652.876L200.841 567.076C206.288 551.621 199.294 534.537 184.582 527.322L167.499 518.941L177.407 495.647C200.862 500.149 225.542 501.054 243.811 499.185H243.832C255.348 497.999 263.95 488.251 263.95 476.896C263.95 476.132 263.91 475.368 263.829 474.585C262.603 462.666 252.233 453.803 240.274 454.487C179.598 458.024 156.525 434.589 156.525 434.589C188.381 435.835 218.066 415.094 226.808 383.017C237.018 345.695 215.011 307.167 177.688 296.957C140.346 286.747 101.818 308.754 91.6077 346.077C86.3822 365.25 89.618 384.746 99.1044 400.543L92.8136 398.312C84.3322 395.619 75.2478 400.081 72.1527 408.421L39.674 496.351C36.3779 505.254 41.2014 515.123 50.2456 518.017L61.3399 522.097C57.2198 533.613 53.3207 545.23 49.6427 556.907C43.6535 575.839 30.7906 616.598 20.9425 647.791C15.7169 664.372 28.3788 680.511 44.7789 680.511Z" fill="white"/>
<path d="M145.872 401.206C145.872 401.206 153.369 413.405 157.087 427.494C157.851 430.368 156.183 431.654 156.524 434.589C156.524 434.589 179.597 458.023 240.274 454.486C252.232 453.803 262.603 462.666 263.829 474.584C265.095 486.905 256.131 497.918 243.811 499.185C218.889 501.757 181.949 499.124 152.525 489.256C152.525 489.256 136.667 484.513 118.458 474.303" stroke="#3A3836" stroke-width="3" stroke-linecap="round" stroke-linejoin="round"/>
<path d="M71.6914 494.382C71.6914 494.382 107.265 511.948 137.412 483.589" stroke="#3A3836" stroke-width="3" stroke-linecap="round" stroke-linejoin="round"/>
<path d="M66.4651 508.832C66.4651 508.832 115.364 531.06 152.546 489.236" stroke="#3A3836" stroke-width="3" stroke-linecap="round" stroke-linejoin="round"/>
<path d="M177.428 495.669L167.519 518.963L184.603 527.344C199.314 534.559 206.289 551.643 200.862 567.098L167.921 652.898C164.746 661.922 156.606 668.293 147.059 669.197C129.634 670.845 116.108 654.244 121.273 637.502L142.256 579.64C143.924 574.193 142.296 568.264 138.075 564.445L127.986 555.321" stroke="#3A3836" stroke-width="3" stroke-linecap="round" stroke-linejoin="round"/>
<path d="M102.642 401.79L92.8345 398.313C84.3531 395.64 75.2486 400.082 72.1736 408.422L39.6949 496.352C36.3988 505.276 41.2224 515.124 50.2665 518.018L61.3407 522.118" stroke="#3A3836" stroke-width="3" stroke-linecap="round" stroke-linejoin="round"/>
<path d="M142.075 553.129L112.249 557.751L68.1538 664.935C64.9783 672.653 58.165 678.3 49.985 679.989C31.1932 683.868 15.1548 666.121 20.9431 647.811C30.7912 616.619 43.6541 575.86 49.6433 556.927C63.5714 512.812 80.5343 469.701 100.391 427.896C102.441 423.575 104.893 419.435 107.787 415.616C108.611 414.531 109.898 412.963 110.782 412.019" stroke="#3A3836" stroke-width="3" stroke-linecap="round" stroke-linejoin="round"/>
<path d="M129.15 427.857C118.9 423.697 108.087 428.279 101.978 431.817C98.9025 433.605 96.4707 436.278 94.9834 439.494" stroke="#3A3836" stroke-width="3" stroke-linecap="round" stroke-linejoin="round"/>
<path d="M176.925 277.119L172.383 295.73" stroke="#3A3836" stroke-width="3" stroke-miterlimit="10"/>
<path d="M121.89 423.908C89.126 403.3 79.2738 360.034 99.8805 327.271C120.489 294.508 163.755 284.655 196.519 305.262C229.281 325.871 239.135 369.137 218.526 401.9C197.92 434.663 154.652 444.516 121.89 423.908Z" fill="white" stroke="#3A3836" stroke-width="3" stroke-linecap="round" stroke-linejoin="round"/>
<path d="M131.664 378.798C137.251 380.325 143.039 377.029 144.567 371.442C146.094 365.854 142.798 360.066 137.211 358.539C131.624 357.011 125.835 360.307 124.308 365.894C122.78 371.482 126.076 377.27 131.664 378.798Z" stroke="#3A3836" stroke-width="3" stroke-linecap="round" stroke-linejoin="round"/>
<path d="M167.277 279.512C168.604 284.838 173.99 288.094 179.316 286.767C184.642 285.441 187.898 280.054 186.572 274.728C185.245 269.402 179.859 266.147 174.533 267.473C169.207 268.799 165.951 274.186 167.277 279.512Z" fill="#FF8E64" stroke="#3A3836" stroke-width="3" stroke-miterlimit="10"/>
<path d="M203.715 418.692C185.787 404.864 181.728 380.164 193.646 360.246C200.64 348.589 211.975 340.972 224.356 338.761" stroke="#3A3836" stroke-width="3" stroke-linecap="round" stroke-linejoin="round"/>
<path d="M192.098 451.008C192.098 451.008 197.223 440.316 187.958 428.458" stroke="#3A3836" stroke-width="3" stroke-linecap="round" stroke-linejoin="round"/>
<path d="M574.386 680.511H186.873" stroke="#3A3836" stroke-width="3" stroke-miterlimit="10" stroke-linecap="round"/>
<path d="M2.00944 680.511H165.066" stroke="#3A3836" stroke-width="3" stroke-miterlimit="10" stroke-linecap="round"/>
</g>
<path d="M302.021 458.407V535.699L369.079 574.349L436.138 535.699V458.407L369.079 419.756L302.021 458.407Z" fill="url(#paint0_linear_4765_5725)" stroke="#3A3836" stroke-width="3" stroke-linecap="round" stroke-linejoin="round"/>
<path d="M1029.06 488.35H743.949C734.529 488.35 726.895 495.975 726.895 505.378V642.986C726.895 652.391 734.529 660.013 743.949 660.013H1029.06C1038.47 660.013 1046.11 652.391 1046.11 642.986V505.378C1046.11 495.975 1038.47 488.35 1029.06 488.35Z" fill="#3A3836" stroke="#3A3836" stroke-width="3" stroke-miterlimit="10"/>
<path d="M1039.67 488.35H754.559C745.139 488.35 737.504 495.975 737.504 505.378V642.986C737.504 652.391 745.139 660.013 754.559 660.013H1039.67C1049.08 660.013 1056.72 652.391 1056.72 642.986V505.378C1056.72 495.975 1049.08 488.35 1039.67 488.35Z" fill="white" stroke="#3A3836" stroke-width="3" stroke-miterlimit="10"/>
<path d="M977.578 623.366L1028.75 600.257C1018.8 578.491 1003.54 559.617 984.656 545.25L950.636 589.741C962.19 598.515 971.498 610.07 977.578 623.366Z" fill="#E4D8F6"/>
<path d="M831.701 531.748L857.089 581.626C828.535 596.185 808.922 625.846 808.922 660.014H754.598C754.039 660.014 753.477 659.983 752.934 659.934C752.967 604.08 785.008 555.56 831.701 531.748Z" fill="#F7AC3B"/>
<path d="M1041.29 659.934C1040.75 659.983 1040.21 660.014 1039.65 660.014H985.497C985.497 646.991 982.677 634.628 977.639 623.47L1028.47 600.221C1036.68 618.437 1041.27 638.663 1041.29 659.934Z" fill="#ADCDFB"/>
<path d="M897.256 572.3C900.917 572.3 904.531 572.556 908.08 572.988L914.953 517.405C909.152 516.684 903.251 516.318 897.256 516.318C873.787 516.318 851.614 521.963 832.015 531.976L857.385 581.897C869.36 575.771 882.917 572.3 897.256 572.3Z" fill="#FFDE83"/>
<path d="M950.573 589.612L984.391 545.453C964.658 530.481 940.905 520.455 915.061 517.282L908.203 572.403C923.995 574.339 938.511 580.446 950.588 589.612H950.573Z" fill="#C0A8E1"/>
<path d="M1056.72 505.393V642.986C1056.72 651.829 1049.96 659.104 1041.32 659.934C1040.77 659.981 1040.23 660.013 1039.67 660.013H754.576C754.016 660.013 753.454 659.981 752.911 659.934C744.264 659.104 737.504 651.829 737.504 642.986V505.393C737.504 495.977 745.143 488.35 754.576 488.35H1039.67C1049.08 488.35 1056.72 495.977 1056.72 505.393Z" stroke="#3A3836" stroke-width="3" stroke-miterlimit="10"/>
<path d="M920.048 616.616H875.138C868.365 616.616 862.875 622.013 862.875 628.671C862.875 635.329 868.365 640.726 875.138 640.726H920.048C926.821 640.726 932.312 635.329 932.312 628.671C932.312 622.013 926.821 616.616 920.048 616.616Z" fill="#E6E6E6"/>
<path d="M1041.29 659.933C1040.74 659.981 1040.2 660.013 1039.64 660.013H985.251C985.251 647.086 982.418 634.814 977.357 623.738C971.291 610.461 962.003 598.922 950.492 590.161C938.372 580.953 923.802 574.808 907.951 572.86C904.396 572.415 900.794 572.176 897.127 572.176C882.749 572.176 869.189 575.639 857.181 581.734C828.602 596.273 808.971 625.893 808.971 660.013H754.6C754.04 660.013 753.477 659.981 752.934 659.933C752.967 604.157 785.036 555.705 831.771 531.926H831.788C851.416 521.952 873.623 516.318 897.127 516.318C903.116 516.318 909.041 516.686 914.836 517.402C940.789 520.579 964.614 530.665 984.419 545.731C1003.26 560.078 1018.49 578.926 1028.42 600.662C1036.66 618.743 1041.27 638.819 1041.29 659.933Z" stroke="#3A3836" stroke-width="3" stroke-miterlimit="10"/>
<defs>
<linearGradient id="paint0_linear_4765_5725" x1="316.191" y1="549.845" x2="421.782" y2="444.076" gradientUnits="userSpaceOnUse">
<stop stop-color="#FF6D37"/>
<stop offset="1" stop-color="#F7AC3B"/>
</linearGradient>
</defs>
</svg>
