<svg width="20" height="20" viewBox="0 0 20 20" fill="none" xmlns="http://www.w3.org/2000/svg">
<path d="M2 3.06667C2 2.47756 2.47756 2 3.06667 2H8.4C8.9891 2 9.46667 2.47756 9.46667 3.06667V8.4C9.46667 8.9891 8.9891 9.46667 8.4 9.46667H3.06667C2.47756 9.46667 2 8.9891 2 8.4V3.06667Z" fill="black"/>
<path d="M10.5333 3.06667C10.5333 2.47756 11.0109 2 11.6 2H16.9333C17.5224 2 18 2.47756 18 3.06667V8.4C18 8.9891 17.5224 9.46667 16.9333 9.46667H11.6C11.0109 9.46667 10.5333 8.9891 10.5333 8.4V3.06667Z" fill="black"/>
<path d="M10.5333 11.6C10.5333 11.0109 11.0109 10.5333 11.6 10.5333H16.9333C17.5224 10.5333 18 11.0109 18 11.6V16.9333C18 17.5224 17.5224 18 16.9333 18H11.6C11.0109 18 10.5333 17.5224 10.5333 16.9333V11.6Z" fill="black"/>
<path d="M2 11.6C2 11.0109 2.47756 10.5333 3.06667 10.5333H8.4C8.9891 10.5333 9.46667 11.0109 9.46667 11.6V16.9333C9.46667 17.5224 8.9891 18 8.4 18H3.06667C2.47756 18 2 17.5224 2 16.9333V11.6Z" fill="black"/>
</svg>
