<svg width="4137" height="4137" viewBox="0 0 4137 4137" fill="none" xmlns="http://www.w3.org/2000/svg">
<g opacity="0.35">
<path d="M648 847H3489L3199.26 1317H925.836L648 847Z" fill="#DE4E50"/>
<path d="M2004 2260L2330 2826L2062 3288.5L1469.86 2260H1685.5H2004Z" fill="#9F21E8"/>
<path d="M1192.5 1789H2930.5L2656.5 2260H1469.86L1192.5 1789Z" fill="#DE4E50"/>
</g>
<path d="M561.14 2036.92H435.22V1538.75H805.11V1641.06H561.14V1755.17H789.37V1857.48H561.14V2036.92ZM1102.53 1640.27H860.926V1538.75H1259.93V1629.25L1019.11 1934.61V1936.18H1272.53V2037.7H848.334V1955.07L1102.53 1641.84V1640.27Z" fill="#465FFF"/>
<path d="M1327.33 1888.96V1790.59H1648.42V1888.96H1327.33ZM2049.62 1538.75H2175.54V2036.92H2050.4L1908.74 1826C1897.72 1809.21 1888.54 1795.05 1881.2 1783.5C1873.85 1771.96 1867.03 1760.42 1860.74 1748.87C1854.44 1737.33 1847.36 1723.69 1839.49 1707.95L1837.13 1711.1C1844.47 1736.28 1848.93 1759.89 1850.5 1781.93C1852.08 1803.44 1852.87 1824.43 1852.87 1844.89V2036.92H1726.95V1538.75H1852.08L1993.74 1749.66C2004.76 1765.93 2013.94 1780.09 2021.28 1792.16C2028.63 1803.7 2035.45 1815.25 2041.75 1826.79C2048.04 1838.33 2055.12 1851.97 2062.99 1867.71L2065.36 1864.56C2060.11 1842.53 2056.17 1821.28 2053.55 1800.82C2050.93 1779.83 2049.62 1759.11 2049.62 1738.64V1538.75ZM2250.64 1848.04C2250.64 1777.73 2265.59 1727.1 2295.5 1696.15C2325.4 1665.19 2376.03 1649.71 2447.39 1649.71C2495.13 1649.71 2533.43 1656.53 2562.29 1670.17C2591.15 1683.82 2611.87 1705.33 2624.46 1734.71C2637.58 1763.57 2644.14 1801.34 2644.14 1848.04C2644.14 1894.21 2637.58 1931.72 2624.46 1960.58C2611.87 1989.43 2591.15 2010.68 2562.29 2024.32C2533.43 2037.44 2495.13 2044 2447.39 2044C2376.03 2044 2325.4 2028.78 2295.5 1998.35C2265.59 1967.4 2250.64 1917.29 2250.64 1848.04ZM2447.39 1936.18C2477.82 1936.18 2498.28 1929.62 2508.77 1916.51C2519.79 1902.86 2525.3 1879.25 2525.3 1845.68C2525.3 1813.67 2519.79 1790.85 2508.77 1777.21C2498.28 1763.04 2477.82 1755.96 2447.39 1755.96C2418.01 1755.96 2397.55 1763.04 2386 1777.21C2374.98 1790.85 2369.48 1813.67 2369.48 1845.68C2369.48 1879.25 2374.98 1902.86 2386 1916.51C2397.55 1929.62 2418.01 1936.18 2447.39 1936.18ZM3079.98 1656.01L2954.85 2036.92H2797.45L2679.4 1655.22V1653.65H2821.06C2832.08 1694.57 2842.31 1738.91 2851.75 1786.65C2861.72 1834.4 2870.64 1880.3 2878.51 1924.38H2881.66C2889.53 1880.3 2898.19 1834.4 2907.63 1786.65C2917.6 1738.91 2928.09 1694.57 2939.11 1653.65H3079.98V1656.01ZM3480.8 2024.32C3466.11 2029.57 3445.65 2034.29 3419.41 2038.49C3393.7 2042.16 3363.01 2044 3327.33 2044C3282.21 2044 3243.65 2038.23 3211.65 2026.69C3180.17 2014.62 3156.29 1994.42 3140.03 1966.09C3123.76 1937.23 3115.63 1897.36 3115.63 1846.46C3115.63 1777.21 3131.37 1727.1 3162.85 1696.15C3194.86 1665.19 3244.17 1649.71 3310.81 1649.71C3358.55 1649.71 3396.07 1656.53 3423.35 1670.17C3451.16 1683.82 3470.83 1703.23 3482.37 1728.41C3494.44 1753.07 3500.47 1782.45 3500.47 1816.56C3500.47 1826.53 3499.95 1837.28 3498.9 1848.82C3498.38 1860.37 3497.06 1871.65 3494.97 1882.66L3491.82 1885.81H3232.89C3236.57 1908.9 3247.32 1924.11 3265.16 1931.46C3283.52 1938.8 3313.17 1942.48 3354.09 1942.48C3381.37 1942.48 3403.94 1941.95 3421.77 1940.9C3440.14 1939.33 3458.76 1937.23 3477.65 1934.61L3480.8 1936.97V2024.32ZM3391.08 1803.18C3391.08 1790.59 3388.98 1779.83 3384.79 1770.91C3381.11 1761.47 3373.5 1754.38 3361.96 1749.66C3350.42 1744.42 3333.37 1741.79 3310.81 1741.79C3277.75 1741.79 3255.98 1747.56 3245.49 1759.11C3235.52 1770.12 3230.53 1784.81 3230.53 1803.18H3391.08ZM3701.21 2036.92H3575.29V1507.27H3701.21V2036.92Z" fill="white"/>
<path d="M620.263 2288.33C618.144 2281.6 615.962 2274.43 613.718 2266.83C611.599 2259.22 609.479 2251.68 607.36 2244.2C605.241 2236.72 603.308 2229.74 601.563 2223.26C599.818 2216.77 598.322 2211.16 597.075 2206.43C595.828 2201.69 594.956 2198.32 594.457 2196.33L593.709 2196.52C594.083 2198.76 594.395 2201.75 594.644 2205.49C594.893 2209.11 595.08 2212.97 595.205 2217.09C595.33 2221.08 595.392 2224.75 595.392 2228.12V2294.32H566.781V2175.95H616.897C618.642 2182.55 620.45 2189.53 622.32 2196.89C624.315 2204.12 626.247 2211.35 628.117 2218.58C630.112 2225.69 631.857 2232.48 633.353 2238.96C634.849 2245.32 635.909 2250.87 636.532 2255.61H636.906C637.529 2250.87 638.527 2245.32 639.898 2238.96C641.394 2232.61 643.077 2225.81 644.947 2218.58C646.817 2211.35 648.749 2204.12 650.744 2196.89C652.739 2189.53 654.546 2182.55 656.167 2175.95H705.535V2294.32H677.298V2228.12C677.298 2224.75 677.36 2221.08 677.485 2217.09C677.61 2212.97 677.797 2209.11 678.046 2205.49C678.42 2201.75 678.732 2198.76 678.981 2196.52L678.233 2196.33C677.734 2198.32 676.862 2201.69 675.615 2206.43C674.368 2211.16 672.81 2216.84 670.94 2223.44C669.195 2229.93 667.262 2236.91 665.143 2244.39C663.024 2251.87 660.842 2259.41 658.598 2267.01C656.479 2274.49 654.422 2281.6 652.427 2288.33H620.263ZM757.552 2294.32V2257.66L719.217 2176.51V2175.95H751.942C755.806 2186.04 758.861 2194.15 761.105 2200.26C763.473 2206.24 765.281 2210.98 766.528 2214.47C767.899 2217.83 768.959 2220.58 769.707 2222.7C770.455 2224.82 771.265 2227.06 772.138 2229.43H772.886C773.758 2227.06 774.569 2224.82 775.317 2222.7C776.065 2220.58 777.062 2217.83 778.309 2214.47C779.68 2210.98 781.488 2206.24 783.732 2200.26C786.1 2194.15 789.217 2186.04 793.082 2175.95H825.807V2176.51L787.472 2257.66V2294.32H757.552ZM973.559 2175.95H1003.48V2294.32H973.746L940.086 2244.2C937.468 2240.21 935.286 2236.85 933.541 2234.1C931.795 2231.36 930.175 2228.62 928.679 2225.87C927.183 2223.13 925.5 2219.89 923.63 2216.15L923.069 2216.9C924.814 2222.88 925.874 2228.49 926.248 2233.73C926.622 2238.84 926.809 2243.83 926.809 2248.69V2294.32H896.889V2175.95H926.622L960.282 2226.06C962.9 2229.93 965.081 2233.29 966.827 2236.16C968.572 2238.9 970.193 2241.65 971.689 2244.39C973.185 2247.13 974.868 2250.37 976.738 2254.11L977.299 2253.36C976.052 2248.13 975.117 2243.08 974.494 2238.22C973.87 2233.23 973.559 2228.31 973.559 2223.44V2175.95ZM1024.13 2235.04C1024.13 2219.95 1025.81 2207.99 1029.18 2199.13C1032.67 2190.28 1038.59 2183.92 1046.94 2180.06C1055.42 2176.2 1067.2 2174.26 1082.29 2174.26C1093.63 2174.26 1103.04 2175.32 1110.52 2177.44C1118 2179.56 1123.92 2182.99 1128.29 2187.73C1132.65 2192.46 1135.71 2198.76 1137.45 2206.61C1139.32 2214.34 1140.26 2223.82 1140.26 2235.04C1140.26 2246.38 1139.32 2255.98 1137.45 2263.84C1135.71 2271.57 1132.65 2277.8 1128.29 2282.54C1123.92 2287.27 1118 2290.7 1110.52 2292.82C1103.04 2294.94 1093.63 2296 1082.29 2296C1070.94 2296 1061.53 2294.94 1054.05 2292.82C1046.57 2290.7 1040.65 2287.27 1036.28 2282.54C1031.92 2277.8 1028.8 2271.57 1026.93 2263.84C1025.06 2255.98 1024.13 2246.38 1024.13 2235.04ZM1082.29 2269.82C1090.26 2269.82 1096.25 2268.82 1100.24 2266.83C1104.23 2264.83 1106.91 2261.34 1108.28 2256.36C1109.65 2251.24 1110.34 2244.14 1110.34 2235.04C1110.34 2226.06 1109.65 2219.08 1108.28 2214.09C1106.91 2209.11 1104.23 2205.62 1100.24 2203.62C1096.25 2201.5 1090.26 2200.44 1082.29 2200.44C1074.43 2200.44 1068.45 2201.5 1064.33 2203.62C1060.34 2205.62 1057.6 2209.11 1056.11 2214.09C1054.73 2219.08 1054.05 2226.06 1054.05 2235.04C1054.05 2244.14 1054.73 2251.24 1056.11 2256.36C1057.6 2261.34 1060.34 2264.83 1064.33 2266.83C1068.45 2268.82 1074.43 2269.82 1082.29 2269.82ZM1268.76 2176.13L1231.92 2294.32H1190.78L1155.81 2176.13H1189.28C1191.28 2182.37 1193.4 2189.47 1195.64 2197.45C1197.88 2205.43 1200.07 2213.6 1202.19 2221.95C1204.43 2230.18 1206.36 2237.91 1207.98 2245.14C1209.73 2252.24 1211.04 2258.16 1211.91 2262.9H1212.66C1213.53 2258.16 1214.78 2252.24 1216.4 2245.14C1218.14 2237.91 1220.07 2230.18 1222.19 2221.95C1224.44 2213.72 1226.68 2205.62 1228.93 2197.64C1231.17 2189.66 1233.29 2182.49 1235.28 2176.13H1268.76ZM1287.82 2294.32V2175.95H1375.71V2200.26H1317.74V2222.7H1368.04V2247.01H1317.74V2270.01H1375.71V2294.32H1287.82ZM1478.52 2268.88V2294.32H1392.5V2175.95H1422.42V2268.88H1478.52ZM1605.51 2288.33C1603.39 2281.6 1601.21 2274.43 1598.97 2266.83C1596.85 2259.22 1594.73 2251.68 1592.61 2244.2C1590.49 2236.72 1588.56 2229.74 1586.81 2223.26C1585.07 2216.77 1583.57 2211.16 1582.32 2206.43C1581.08 2201.69 1580.2 2198.32 1579.71 2196.33L1578.96 2196.52C1579.33 2198.76 1579.64 2201.75 1579.89 2205.49C1580.14 2209.11 1580.33 2212.97 1580.45 2217.09C1580.58 2221.08 1580.64 2224.75 1580.64 2228.12V2294.32H1552.03V2175.95H1602.15C1603.89 2182.55 1605.7 2189.53 1607.57 2196.89C1609.56 2204.12 1611.5 2211.35 1613.37 2218.58C1615.36 2225.69 1617.11 2232.48 1618.6 2238.96C1620.1 2245.32 1621.16 2250.87 1621.78 2255.61H1622.15C1622.78 2250.87 1623.78 2245.32 1625.15 2238.96C1626.64 2232.61 1628.33 2225.81 1630.2 2218.58C1632.07 2211.35 1634 2204.12 1635.99 2196.89C1637.99 2189.53 1639.8 2182.55 1641.42 2175.95H1690.78V2294.32H1662.55V2228.12C1662.55 2224.75 1662.61 2221.08 1662.73 2217.09C1662.86 2212.97 1663.05 2209.11 1663.29 2205.49C1663.67 2201.75 1663.98 2198.76 1664.23 2196.52L1663.48 2196.33C1662.98 2198.32 1662.11 2201.69 1660.86 2206.43C1659.62 2211.16 1658.06 2216.84 1656.19 2223.44C1654.44 2229.93 1652.51 2236.91 1650.39 2244.39C1648.27 2251.87 1646.09 2259.41 1643.85 2267.01C1641.73 2274.49 1639.67 2281.6 1637.68 2288.33H1605.51ZM1824.15 2293.76V2294.32H1792.36C1791.48 2291.32 1790.42 2287.9 1789.18 2284.03C1788.05 2280.17 1786.81 2276.05 1785.44 2271.69H1745.04C1742.55 2280.42 1740.24 2287.96 1738.13 2294.32H1706.34V2293.94L1744.67 2175.95H1785.81L1824.15 2293.76ZM1764.87 2197.26C1763.62 2203.62 1761.81 2211.35 1759.44 2220.45C1757.07 2229.55 1754.58 2238.84 1751.96 2248.31H1778.7C1775.96 2238.84 1773.41 2229.55 1771.04 2220.45C1768.67 2211.35 1766.86 2203.62 1765.61 2197.26H1764.87ZM1915.85 2175.95H1945.77V2294.32H1916.04L1882.38 2244.2C1879.76 2240.21 1877.58 2236.85 1875.83 2234.1C1874.09 2231.36 1872.46 2228.62 1870.97 2225.87C1869.47 2223.13 1867.79 2219.89 1865.92 2216.15L1865.36 2216.9C1867.1 2222.88 1868.16 2228.49 1868.54 2233.73C1868.91 2238.84 1869.1 2243.83 1869.1 2248.69V2294.32H1839.18V2175.95H1868.91L1902.57 2226.06C1905.19 2229.93 1907.37 2233.29 1909.12 2236.16C1910.86 2238.9 1912.48 2241.65 1913.98 2244.39C1915.47 2247.13 1917.16 2250.37 1919.03 2254.11L1919.59 2253.36C1918.34 2248.13 1917.41 2243.08 1916.78 2238.22C1916.16 2233.23 1915.85 2228.31 1915.85 2223.44V2175.95ZM2078.62 2293.76V2294.32H2046.83C2045.96 2291.32 2044.9 2287.9 2043.65 2284.03C2042.53 2280.17 2041.28 2276.05 2039.91 2271.69H1999.52C1997.02 2280.42 1994.72 2287.96 1992.6 2294.32H1960.81V2293.94L1999.14 2175.95H2040.28L2078.62 2293.76ZM2019.34 2197.26C2018.09 2203.62 2016.29 2211.35 2013.92 2220.45C2011.55 2229.55 2009.05 2238.84 2006.44 2248.31H2033.18C2030.44 2238.84 2027.88 2229.55 2025.51 2220.45C2023.14 2211.35 2021.33 2203.62 2020.09 2197.26H2019.34ZM2169.39 2259.35C2169.39 2255.23 2169.57 2251.49 2169.95 2248.13L2169.57 2247.57C2166.08 2248.07 2162.28 2248.44 2158.17 2248.69C2154.05 2248.81 2150.25 2248.81 2146.76 2248.69V2224.38L2195.57 2224.19V2287.77C2189.83 2290.39 2183.29 2292.45 2175.93 2293.94C2168.7 2295.31 2159.48 2296 2148.26 2296C2133.3 2296 2121.58 2294.01 2113.1 2290.02C2104.62 2285.9 2098.64 2279.36 2095.15 2270.38C2091.66 2261.28 2089.91 2249.19 2089.91 2234.1C2089.91 2221.89 2091.28 2211.85 2094.03 2204C2096.89 2196.14 2101.01 2190.1 2106.37 2185.86C2111.85 2181.49 2118.52 2178.5 2126.38 2176.88C2134.23 2175.14 2143.21 2174.26 2153.31 2174.26C2159.29 2174.26 2165.27 2174.51 2171.26 2175.01C2177.37 2175.51 2183.41 2176.44 2189.4 2177.82V2202.5L2188.84 2202.87C2183.6 2201.63 2178.36 2200.75 2173.13 2200.26C2168.02 2199.76 2162.84 2199.51 2157.61 2199.51C2150 2199.51 2143.33 2200.32 2137.6 2201.94C2131.99 2203.43 2127.62 2206.61 2124.51 2211.48C2121.39 2216.34 2119.83 2223.88 2119.83 2234.1C2119.83 2244.2 2120.64 2251.93 2122.26 2257.29C2124.01 2262.53 2127.19 2266.14 2131.8 2268.14C2136.54 2270.01 2143.27 2270.94 2152 2270.94C2153.12 2270.94 2154.86 2270.94 2157.23 2270.94C2159.6 2270.82 2161.97 2270.69 2164.34 2270.57C2166.71 2270.44 2168.39 2270.26 2169.39 2270.01V2259.35ZM2218.06 2294.32V2175.95H2305.95V2200.26H2247.98V2222.7H2298.28V2247.01H2247.98V2270.01H2305.95V2294.32H2218.06ZM2376.78 2288.33C2374.67 2281.6 2372.48 2274.43 2370.24 2266.83C2368.12 2259.22 2366 2251.68 2363.88 2244.2C2361.76 2236.72 2359.83 2229.74 2358.08 2223.26C2356.34 2216.77 2354.84 2211.16 2353.6 2206.43C2352.35 2201.69 2351.48 2198.32 2350.98 2196.33L2350.23 2196.52C2350.6 2198.76 2350.92 2201.75 2351.17 2205.49C2351.42 2209.11 2351.6 2212.97 2351.73 2217.09C2351.85 2221.08 2351.91 2224.75 2351.91 2228.12V2294.32H2323.3V2175.95H2373.42C2375.16 2182.55 2376.97 2189.53 2378.84 2196.89C2380.84 2204.12 2382.77 2211.35 2384.64 2218.58C2386.63 2225.69 2388.38 2232.48 2389.87 2238.96C2391.37 2245.32 2392.43 2250.87 2393.05 2255.61H2393.43C2394.05 2250.87 2395.05 2245.32 2396.42 2238.96C2397.92 2232.61 2399.6 2225.81 2401.47 2218.58C2403.34 2211.35 2405.27 2204.12 2407.27 2196.89C2409.26 2189.53 2411.07 2182.55 2412.69 2175.95H2462.06V2294.32H2433.82V2228.12C2433.82 2224.75 2433.88 2221.08 2434.01 2217.09C2434.13 2212.97 2434.32 2209.11 2434.57 2205.49C2434.94 2201.75 2435.25 2198.76 2435.5 2196.52L2434.75 2196.33C2434.26 2198.32 2433.38 2201.69 2432.14 2206.43C2430.89 2211.16 2429.33 2216.84 2427.46 2223.44C2425.72 2229.93 2423.78 2236.91 2421.66 2244.39C2419.55 2251.87 2417.36 2259.41 2415.12 2267.01C2413 2274.49 2410.94 2281.6 2408.95 2288.33H2376.78ZM2486.96 2294.32V2175.95H2574.85V2200.26H2516.88V2222.7H2567.18V2247.01H2516.88V2270.01H2574.85V2294.32H2486.96ZM2668.31 2175.95H2698.23V2294.32H2668.5L2634.84 2244.2C2632.22 2240.21 2630.04 2236.85 2628.29 2234.1C2626.55 2231.36 2624.93 2228.62 2623.43 2225.87C2621.94 2223.13 2620.25 2219.89 2618.38 2216.15L2617.82 2216.9C2619.57 2222.88 2620.63 2228.49 2621 2233.73C2621.37 2238.84 2621.56 2243.83 2621.56 2248.69V2294.32H2591.64V2175.95H2621.37L2655.03 2226.06C2657.65 2229.93 2659.83 2233.29 2661.58 2236.16C2663.33 2238.9 2664.95 2241.65 2666.44 2244.39C2667.94 2247.13 2669.62 2250.37 2671.49 2254.11L2672.05 2253.36C2670.81 2248.13 2669.87 2243.08 2669.25 2238.22C2668.62 2233.23 2668.31 2228.31 2668.31 2223.44V2175.95ZM2746.93 2294.32V2201.19H2713.27V2175.95H2810.51V2201.19H2776.85V2294.32H2746.93ZM2880.42 2263.84C2885.91 2265.71 2891.89 2267.2 2898.37 2268.32C2904.98 2269.32 2911.53 2269.82 2918.01 2269.82C2926.86 2269.82 2933.4 2269.45 2937.64 2268.7C2942.01 2267.83 2944.87 2266.52 2946.24 2264.77C2947.62 2263.03 2948.3 2260.78 2948.3 2258.04C2948.3 2255.67 2947.8 2253.8 2946.81 2252.43C2945.81 2251.06 2943.88 2250 2941.01 2249.25C2938.14 2248.38 2933.9 2247.69 2928.29 2247.19L2915.95 2246.07C2906.73 2245.2 2899.43 2243.27 2894.07 2240.27C2888.84 2237.28 2885.1 2233.29 2882.85 2228.31C2880.73 2223.19 2879.67 2217.09 2879.67 2209.98C2879.67 2201.5 2881.36 2194.65 2884.72 2189.41C2888.21 2184.17 2893.82 2180.37 2901.55 2178C2909.28 2175.51 2919.57 2174.26 2932.41 2174.26C2949.11 2174.26 2962.89 2176.44 2973.73 2180.81L2973.17 2206.24L2972.61 2206.99C2960.27 2202.62 2947.37 2200.44 2933.9 2200.44C2927.42 2200.44 2922.43 2200.82 2918.94 2201.57C2915.45 2202.19 2913.02 2203.25 2911.65 2204.74C2910.28 2206.24 2909.59 2208.36 2909.59 2211.1C2909.59 2213.84 2910.03 2215.9 2910.9 2217.27C2911.9 2218.64 2913.83 2219.7 2916.7 2220.45C2919.57 2221.08 2923.74 2221.7 2929.23 2222.32L2941.01 2223.63C2950.98 2224.75 2958.65 2226.75 2964.01 2229.61C2969.37 2232.48 2973.05 2236.35 2975.04 2241.21C2977.16 2245.95 2978.22 2251.74 2978.22 2258.6C2978.22 2266.95 2976.41 2273.93 2972.8 2279.54C2969.31 2285.03 2963.57 2289.14 2955.59 2291.89C2947.62 2294.63 2936.96 2296 2923.62 2296C2914.89 2296 2907.04 2295.56 2900.06 2294.69C2893.07 2293.69 2886.28 2292.38 2879.67 2290.76V2264.4L2880.42 2263.84ZM3025.99 2294.32V2257.66L2987.65 2176.51V2175.95H3020.38C3024.24 2186.04 3027.29 2194.15 3029.54 2200.26C3031.91 2206.24 3033.72 2210.98 3034.96 2214.47C3036.33 2217.83 3037.39 2220.58 3038.14 2222.7C3038.89 2224.82 3039.7 2227.06 3040.57 2229.43H3041.32C3042.19 2227.06 3043 2224.82 3043.75 2222.7C3044.5 2220.58 3045.5 2217.83 3046.74 2214.47C3048.11 2210.98 3049.92 2206.24 3052.17 2200.26C3054.53 2194.15 3057.65 2186.04 3061.52 2175.95H3094.24V2176.51L3055.91 2257.66V2294.32H3025.99ZM3104.4 2263.84C3109.88 2265.71 3115.87 2267.2 3122.35 2268.32C3128.96 2269.32 3135.5 2269.82 3141.98 2269.82C3150.84 2269.82 3157.38 2269.45 3161.62 2268.7C3165.98 2267.83 3168.85 2266.52 3170.22 2264.77C3171.59 2263.03 3172.28 2260.78 3172.28 2258.04C3172.28 2255.67 3171.78 2253.8 3170.78 2252.43C3169.78 2251.06 3167.85 2250 3164.99 2249.25C3162.12 2248.38 3157.88 2247.69 3152.27 2247.19L3139.93 2246.07C3130.7 2245.2 3123.41 2243.27 3118.05 2240.27C3112.81 2237.28 3109.07 2233.29 3106.83 2228.31C3104.71 2223.19 3103.65 2217.09 3103.65 2209.98C3103.65 2201.5 3105.33 2194.65 3108.7 2189.41C3112.19 2184.17 3117.8 2180.37 3125.53 2178C3133.26 2175.51 3143.54 2174.26 3156.38 2174.26C3173.09 2174.26 3186.86 2176.44 3197.71 2180.81L3197.15 2206.24L3196.59 2206.99C3184.25 2202.62 3171.34 2200.44 3157.88 2200.44C3151.4 2200.44 3146.41 2200.82 3142.92 2201.57C3139.43 2202.19 3137 2203.25 3135.63 2204.74C3134.25 2206.24 3133.57 2208.36 3133.57 2211.1C3133.57 2213.84 3134.01 2215.9 3134.88 2217.27C3135.88 2218.64 3137.81 2219.7 3140.68 2220.45C3143.54 2221.08 3147.72 2221.7 3153.2 2222.32L3164.99 2223.63C3174.96 2224.75 3182.63 2226.75 3187.99 2229.61C3193.35 2232.48 3197.02 2236.35 3199.02 2241.21C3201.14 2245.95 3202.2 2251.74 3202.2 2258.6C3202.2 2266.95 3200.39 2273.93 3196.78 2279.54C3193.28 2285.03 3187.55 2289.14 3179.57 2291.89C3171.59 2294.63 3160.93 2296 3147.59 2296C3138.87 2296 3131.01 2295.56 3124.03 2294.69C3117.05 2293.69 3110.26 2292.38 3103.65 2290.76V2264.4L3104.4 2263.84ZM3247.16 2294.32V2201.19H3213.5V2175.95H3310.74V2201.19H3277.08V2294.32H3247.16ZM3325.7 2294.32V2175.95H3413.59V2200.26H3355.62V2222.7H3405.93V2247.01H3355.62V2270.01H3413.59V2294.32H3325.7ZM3484.43 2288.33C3482.31 2281.6 3480.13 2274.43 3477.89 2266.83C3475.77 2259.22 3473.65 2251.68 3471.53 2244.2C3469.41 2236.72 3467.48 2229.74 3465.73 2223.26C3463.99 2216.77 3462.49 2211.16 3461.24 2206.43C3460 2201.69 3459.12 2198.32 3458.62 2196.33L3457.88 2196.52C3458.25 2198.76 3458.56 2201.75 3458.81 2205.49C3459.06 2209.11 3459.25 2212.97 3459.37 2217.09C3459.5 2221.08 3459.56 2224.75 3459.56 2228.12V2294.32H3430.95V2175.95H3481.06C3482.81 2182.55 3484.62 2189.53 3486.49 2196.89C3488.48 2204.12 3490.41 2211.35 3492.28 2218.58C3494.28 2225.69 3496.02 2232.48 3497.52 2238.96C3499.02 2245.32 3500.08 2250.87 3500.7 2255.61H3501.07C3501.7 2250.87 3502.69 2245.32 3504.07 2238.96C3505.56 2232.61 3507.24 2225.81 3509.11 2218.58C3510.98 2211.35 3512.92 2204.12 3514.91 2196.89C3516.91 2189.53 3518.71 2182.55 3520.33 2175.95H3569.7V2294.32H3541.47V2228.12C3541.47 2224.75 3541.53 2221.08 3541.65 2217.09C3541.78 2212.97 3541.96 2209.11 3542.21 2205.49C3542.59 2201.75 3542.9 2198.76 3543.15 2196.52L3542.4 2196.33C3541.9 2198.32 3541.03 2201.69 3539.78 2206.43C3538.54 2211.16 3536.98 2216.84 3535.11 2223.44C3533.36 2229.93 3531.43 2236.91 3529.31 2244.39C3527.19 2251.87 3525.01 2259.41 3522.77 2267.01C3520.65 2274.49 3518.59 2281.6 3516.59 2288.33H3484.43Z" fill="white"/>
</svg>
