<svg width="3684" height="1112" viewBox="0 0 3684 1112" fill="none" xmlns="http://www.w3.org/2000/svg">
<rect x="0.5" y="0.5" width="3683" height="1111" stroke="black"/>
<g opacity="0.35">
<path d="M1309 96H2377L2268.08 272.719H1413.45L1309 96Z" fill="#DE4E50"/>
<path d="M1818.75 627.286L1941.3 840.1L1840.56 1014L1617.96 627.286H1699.02H1818.75Z" fill="#9F21E8"/>
<path d="M1513.69 450.19H2167.05L2064.04 627.286H1617.96L1513.69 450.19Z" fill="#DE4E50"/>
</g>
<path d="M335.14 699.917H209.22V201.746H579.11V304.056H335.14V418.171H563.37V520.481H335.14V699.917ZM876.535 303.269H634.926V201.746H1033.93V292.251L793.113 597.607V599.181H1046.53V700.704H622.334V618.069L876.535 304.843V303.269Z" fill="#465FFF"/>
<path d="M1101.33 551.961V453.586H1422.42V551.961H1101.33ZM1823.62 201.746H1949.54V699.917H1824.4L1682.74 489.001C1671.72 472.212 1662.54 458.046 1655.2 446.503C1647.85 434.96 1641.03 423.418 1634.74 411.875C1628.44 400.332 1621.36 386.691 1613.49 370.951L1611.13 374.099C1618.47 399.283 1622.93 422.893 1624.5 444.929C1626.08 466.44 1626.87 487.427 1626.87 507.889V699.917H1500.95V201.746H1626.08L1767.74 412.662C1778.76 428.927 1787.94 443.093 1795.28 455.16C1802.63 466.703 1809.45 478.245 1815.75 489.788C1822.04 501.331 1829.12 514.972 1836.99 530.712L1839.36 527.564C1834.11 505.528 1830.17 484.279 1827.55 463.817C1824.93 442.83 1823.62 422.106 1823.62 401.644V201.746ZM2024.64 511.037C2024.64 440.732 2039.59 390.101 2069.5 359.146C2099.4 328.191 2150.03 312.713 2221.39 312.713C2269.13 312.713 2307.43 319.534 2336.29 333.175C2365.15 346.816 2385.87 368.328 2398.46 397.709C2411.58 426.566 2418.14 464.342 2418.14 511.037C2418.14 557.208 2411.58 594.721 2398.46 623.578C2385.87 652.435 2365.15 673.684 2336.29 687.325C2307.43 700.442 2269.13 707 2221.39 707C2150.03 707 2099.4 691.785 2069.5 661.354C2039.59 630.399 2024.64 580.293 2024.64 511.037ZM2221.39 599.181C2251.82 599.181 2272.28 592.623 2282.77 579.506C2293.79 565.865 2299.3 542.255 2299.3 508.676C2299.3 476.671 2293.79 453.848 2282.77 440.207C2272.28 426.041 2251.82 418.958 2221.39 418.958C2192.01 418.958 2171.55 426.041 2160 440.207C2148.98 453.848 2143.48 476.671 2143.48 508.676C2143.48 542.255 2148.98 565.865 2160 579.506C2171.55 592.623 2192.01 599.181 2221.39 599.181ZM2853.98 319.009L2728.85 699.917H2571.45L2453.4 318.222V316.648H2595.06C2606.08 357.572 2616.31 401.906 2625.75 449.651C2635.72 497.396 2644.64 543.304 2652.51 587.376H2655.66C2663.53 543.304 2672.19 497.396 2681.63 449.651C2691.6 401.906 2702.09 357.572 2713.11 316.648H2853.98V319.009ZM3254.8 687.325C3240.11 692.572 3219.65 697.294 3193.41 701.491C3167.7 705.164 3137.01 707 3101.33 707C3056.21 707 3017.65 701.229 2985.65 689.686C2954.17 677.619 2930.29 657.419 2914.03 629.087C2897.76 600.23 2889.63 560.356 2889.63 509.463C2889.63 440.207 2905.37 390.101 2936.85 359.146C2968.86 328.191 3018.17 312.713 3084.81 312.713C3132.55 312.713 3170.07 319.534 3197.35 333.175C3225.16 346.816 3244.83 366.229 3256.37 391.413C3268.44 416.072 3274.47 445.454 3274.47 479.557C3274.47 489.526 3273.95 500.281 3272.9 511.824C3272.38 523.367 3271.06 534.647 3268.97 545.665L3265.82 548.813H3006.89C3010.57 571.898 3021.32 587.114 3039.16 594.459C3057.52 601.804 3087.17 605.477 3128.09 605.477C3155.37 605.477 3177.94 604.952 3195.77 603.903C3214.14 602.329 3232.76 600.23 3251.65 597.607L3254.8 599.968V687.325ZM3165.08 466.178C3165.08 453.586 3162.98 442.83 3158.79 433.911C3155.11 424.467 3147.5 417.384 3135.96 412.662C3124.42 407.415 3107.37 404.792 3084.81 404.792C3051.75 404.792 3029.98 410.563 3019.49 422.106C3009.52 433.124 3004.53 447.815 3004.53 466.178H3165.08ZM3475.21 699.917H3349.29V170.266H3475.21V699.917Z" fill="white"/>
<path d="M394.263 932.333C392.144 925.601 389.962 918.433 387.718 910.828C385.599 903.223 383.479 895.681 381.36 888.201C379.241 880.721 377.308 873.74 375.563 867.257C373.818 860.774 372.322 855.164 371.075 850.427C369.828 845.69 368.956 842.324 368.457 840.329L367.709 840.516C368.083 842.76 368.395 845.752 368.644 849.492C368.893 853.107 369.08 856.972 369.205 861.086C369.33 865.075 369.392 868.753 369.392 872.119V938.317H340.781V819.946H390.897C392.642 826.553 394.45 833.535 396.32 840.89C398.315 848.121 400.247 855.351 402.117 862.582C404.112 869.688 405.857 876.482 407.353 882.965C408.849 889.323 409.909 894.871 410.532 899.608H410.906C411.529 894.871 412.527 889.323 413.898 882.965C415.394 876.607 417.077 869.813 418.947 862.582C420.817 855.351 422.749 848.121 424.744 840.89C426.739 833.535 428.546 826.553 430.167 819.946H479.535V938.317H451.298V872.119C451.298 868.753 451.36 865.075 451.485 861.086C451.61 856.972 451.797 853.107 452.046 849.492C452.42 845.752 452.732 842.76 452.981 840.516L452.233 840.329C451.734 842.324 450.862 845.69 449.615 850.427C448.368 855.164 446.81 860.837 444.94 867.444C443.195 873.927 441.262 880.908 439.143 888.388C437.024 895.868 434.842 903.41 432.598 911.015C430.479 918.495 428.422 925.601 426.427 932.333H394.263ZM531.552 938.317V901.665L493.217 820.507V819.946H525.942C529.806 830.044 532.861 838.147 535.105 844.256C537.473 850.24 539.281 854.977 540.528 858.468C541.899 861.834 542.959 864.577 543.707 866.696C544.455 868.815 545.265 871.059 546.138 873.428H546.886C547.758 871.059 548.569 868.815 549.317 866.696C550.065 864.577 551.062 861.834 552.309 858.468C553.68 854.977 555.488 850.24 557.732 844.256C560.1 838.147 563.217 830.044 567.082 819.946H599.807V820.507L561.472 901.665V938.317H531.552ZM747.559 819.946H777.479V938.317H747.746L714.086 888.201C711.468 884.212 709.286 880.846 707.541 878.103C705.795 875.36 704.175 872.618 702.679 869.875C701.183 867.132 699.5 863.891 697.63 860.151L697.069 860.899C698.814 866.883 699.874 872.493 700.248 877.729C700.622 882.84 700.809 887.827 700.809 892.689V938.317H670.889V819.946H700.622L734.282 870.062C736.9 873.927 739.081 877.293 740.827 880.16C742.572 882.903 744.193 885.645 745.689 888.388C747.185 891.131 748.868 894.372 750.738 898.112L751.299 897.364C750.052 892.128 749.117 887.079 748.494 882.217C747.87 877.23 747.559 872.306 747.559 867.444V819.946ZM798.129 879.038C798.129 863.953 799.812 851.985 803.178 843.134C806.669 834.283 812.59 827.925 820.943 824.06C829.42 820.195 841.201 818.263 856.286 818.263C867.631 818.263 877.043 819.323 884.523 821.442C892.003 823.561 897.925 826.99 902.288 831.727C906.651 836.464 909.706 842.76 911.451 850.614C913.321 858.343 914.256 867.818 914.256 879.038C914.256 890.383 913.321 899.982 911.451 907.836C909.706 915.565 906.651 921.799 902.288 926.536C897.925 931.273 892.003 934.702 884.523 936.821C877.043 938.94 867.631 940 856.286 940C844.941 940 835.529 938.94 828.049 936.821C820.569 934.702 814.647 931.273 810.284 926.536C805.921 921.799 802.804 915.565 800.934 907.836C799.064 899.982 798.129 890.383 798.129 879.038ZM856.286 913.82C864.265 913.82 870.249 912.823 874.238 910.828C878.227 908.833 880.908 905.343 882.279 900.356C883.65 895.245 884.336 888.139 884.336 879.038C884.336 870.062 883.65 863.081 882.279 858.094C880.908 853.107 878.227 849.617 874.238 847.622C870.249 845.503 864.265 844.443 856.286 844.443C848.432 844.443 842.448 845.503 838.334 847.622C834.345 849.617 831.602 853.107 830.106 858.094C828.735 863.081 828.049 870.062 828.049 879.038C828.049 888.139 828.735 895.245 830.106 900.356C831.602 905.343 834.345 908.833 838.334 910.828C842.448 912.823 848.432 913.82 856.286 913.82ZM1042.76 820.133L1005.92 938.317H964.778L929.809 820.133H963.282C965.277 826.366 967.396 833.472 969.64 841.451C971.884 849.43 974.066 857.595 976.185 865.948C978.429 874.176 980.361 881.905 981.982 889.136C983.727 896.242 985.036 902.164 985.909 906.901H986.657C987.53 902.164 988.776 896.242 990.397 889.136C992.142 881.905 994.075 874.176 996.194 865.948C998.438 857.72 1000.68 849.617 1002.93 841.638C1005.17 833.659 1007.29 826.491 1009.28 820.133H1042.76ZM1061.82 938.317V819.946H1149.71V844.256H1091.74V866.696H1142.04V891.006H1091.74V914.007H1149.71V938.317H1061.82ZM1252.52 912.885V938.317H1166.5V819.946H1196.42V912.885H1252.52ZM1379.51 932.333C1377.39 925.601 1375.21 918.433 1372.97 910.828C1370.85 903.223 1368.73 895.681 1366.61 888.201C1364.49 880.721 1362.56 873.74 1360.81 867.257C1359.07 860.774 1357.57 855.164 1356.32 850.427C1355.08 845.69 1354.2 842.324 1353.71 840.329L1352.96 840.516C1353.33 842.76 1353.64 845.752 1353.89 849.492C1354.14 853.107 1354.33 856.972 1354.45 861.086C1354.58 865.075 1354.64 868.753 1354.64 872.119V938.317H1326.03V819.946H1376.15C1377.89 826.553 1379.7 833.535 1381.57 840.89C1383.56 848.121 1385.5 855.351 1387.37 862.582C1389.36 869.688 1391.11 876.482 1392.6 882.965C1394.1 889.323 1395.16 894.871 1395.78 899.608H1396.15C1396.78 894.871 1397.78 889.323 1399.15 882.965C1400.64 876.607 1402.33 869.813 1404.2 862.582C1406.07 855.351 1408 848.121 1409.99 840.89C1411.99 833.535 1413.8 826.553 1415.42 819.946H1464.78V938.317H1436.55V872.119C1436.55 868.753 1436.61 865.075 1436.73 861.086C1436.86 856.972 1437.05 853.107 1437.29 849.492C1437.67 845.752 1437.98 842.76 1438.23 840.516L1437.48 840.329C1436.98 842.324 1436.11 845.69 1434.86 850.427C1433.62 855.164 1432.06 860.837 1430.19 867.444C1428.44 873.927 1426.51 880.908 1424.39 888.388C1422.27 895.868 1420.09 903.41 1417.85 911.015C1415.73 918.495 1413.67 925.601 1411.68 932.333H1379.51ZM1598.15 937.756V938.317H1566.36C1565.48 935.325 1564.42 931.897 1563.18 928.032C1562.05 924.167 1560.81 920.053 1559.44 915.69H1519.04C1516.55 924.417 1514.24 931.959 1512.13 938.317H1480.34V937.943L1518.67 819.946H1559.81L1598.15 937.756ZM1538.87 841.264C1537.62 847.622 1535.81 855.351 1533.44 864.452C1531.07 873.553 1528.58 882.84 1525.96 892.315H1552.7C1549.96 882.84 1547.41 873.553 1545.04 864.452C1542.67 855.351 1540.86 847.622 1539.61 841.264H1538.87ZM1689.85 819.946H1719.77V938.317H1690.04L1656.38 888.201C1653.76 884.212 1651.58 880.846 1649.83 878.103C1648.09 875.36 1646.46 872.618 1644.97 869.875C1643.47 867.132 1641.79 863.891 1639.92 860.151L1639.36 860.899C1641.1 866.883 1642.16 872.493 1642.54 877.729C1642.91 882.84 1643.1 887.827 1643.1 892.689V938.317H1613.18V819.946H1642.91L1676.57 870.062C1679.19 873.927 1681.37 877.293 1683.12 880.16C1684.86 882.903 1686.48 885.645 1687.98 888.388C1689.47 891.131 1691.16 894.372 1693.03 898.112L1693.59 897.364C1692.34 892.128 1691.41 887.079 1690.78 882.217C1690.16 877.23 1689.85 872.306 1689.85 867.444V819.946ZM1852.62 937.756V938.317H1820.83C1819.96 935.325 1818.9 931.897 1817.65 928.032C1816.53 924.167 1815.28 920.053 1813.91 915.69H1773.52C1771.02 924.417 1768.72 931.959 1766.6 938.317H1734.81V937.943L1773.14 819.946H1814.28L1852.62 937.756ZM1793.34 841.264C1792.09 847.622 1790.29 855.351 1787.92 864.452C1785.55 873.553 1783.05 882.84 1780.44 892.315H1807.18C1804.44 882.84 1801.88 873.553 1799.51 864.452C1797.14 855.351 1795.33 847.622 1794.09 841.264H1793.34ZM1943.39 903.348C1943.39 899.234 1943.57 895.494 1943.95 892.128L1943.57 891.567C1940.08 892.066 1936.28 892.44 1932.17 892.689C1928.05 892.814 1924.25 892.814 1920.76 892.689V868.379L1969.57 868.192V931.772C1963.83 934.39 1957.29 936.447 1949.93 937.943C1942.7 939.314 1933.48 940 1922.26 940C1907.3 940 1895.58 938.005 1887.1 934.016C1878.62 929.902 1872.64 923.357 1869.15 914.381C1865.66 905.28 1863.91 893.188 1863.91 878.103C1863.91 865.886 1865.28 855.85 1868.03 847.996C1870.89 840.142 1875.01 834.096 1880.37 829.857C1885.85 825.494 1892.52 822.502 1900.38 820.881C1908.23 819.136 1917.21 818.263 1927.31 818.263C1933.29 818.263 1939.27 818.512 1945.26 819.011C1951.37 819.51 1957.41 820.445 1963.4 821.816V846.5L1962.84 846.874C1957.6 845.627 1952.36 844.755 1947.13 844.256C1942.02 843.757 1936.84 843.508 1931.61 843.508C1924 843.508 1917.33 844.318 1911.6 845.939C1905.99 847.435 1901.62 850.614 1898.51 855.476C1895.39 860.338 1893.83 867.88 1893.83 878.103C1893.83 888.201 1894.64 895.93 1896.26 901.291C1898.01 906.527 1901.19 910.142 1905.8 912.137C1910.54 914.007 1917.27 914.942 1926 914.942C1927.12 914.942 1928.86 914.942 1931.23 914.942C1933.6 914.817 1935.97 914.693 1938.34 914.568C1940.71 914.443 1942.39 914.256 1943.39 914.007V903.348ZM1992.06 938.317V819.946H2079.95V844.256H2021.98V866.696H2072.28V891.006H2021.98V914.007H2079.95V938.317H1992.06ZM2150.78 932.333C2148.67 925.601 2146.48 918.433 2144.24 910.828C2142.12 903.223 2140 895.681 2137.88 888.201C2135.76 880.721 2133.83 873.74 2132.08 867.257C2130.34 860.774 2128.84 855.164 2127.6 850.427C2126.35 845.69 2125.48 842.324 2124.98 840.329L2124.23 840.516C2124.6 842.76 2124.92 845.752 2125.17 849.492C2125.42 853.107 2125.6 856.972 2125.73 861.086C2125.85 865.075 2125.91 868.753 2125.91 872.119V938.317H2097.3V819.946H2147.42C2149.16 826.553 2150.97 833.535 2152.84 840.89C2154.84 848.121 2156.77 855.351 2158.64 862.582C2160.63 869.688 2162.38 876.482 2163.87 882.965C2165.37 889.323 2166.43 894.871 2167.05 899.608H2167.43C2168.05 894.871 2169.05 889.323 2170.42 882.965C2171.92 876.607 2173.6 869.813 2175.47 862.582C2177.34 855.351 2179.27 848.121 2181.27 840.89C2183.26 833.535 2185.07 826.553 2186.69 819.946H2236.06V938.317H2207.82V872.119C2207.82 868.753 2207.88 865.075 2208.01 861.086C2208.13 856.972 2208.32 853.107 2208.57 849.492C2208.94 845.752 2209.25 842.76 2209.5 840.516L2208.75 840.329C2208.26 842.324 2207.38 845.69 2206.14 850.427C2204.89 855.164 2203.33 860.837 2201.46 867.444C2199.72 873.927 2197.78 880.908 2195.66 888.388C2193.55 895.868 2191.36 903.41 2189.12 911.015C2187 918.495 2184.94 925.601 2182.95 932.333H2150.78ZM2260.96 938.317V819.946H2348.85V844.256H2290.88V866.696H2341.18V891.006H2290.88V914.007H2348.85V938.317H2260.96ZM2442.31 819.946H2472.23V938.317H2442.5L2408.84 888.201C2406.22 884.212 2404.04 880.846 2402.29 878.103C2400.55 875.36 2398.93 872.618 2397.43 869.875C2395.94 867.132 2394.25 863.891 2392.38 860.151L2391.82 860.899C2393.57 866.883 2394.63 872.493 2395 877.729C2395.37 882.84 2395.56 887.827 2395.56 892.689V938.317H2365.64V819.946H2395.37L2429.03 870.062C2431.65 873.927 2433.83 877.293 2435.58 880.16C2437.33 882.903 2438.95 885.645 2440.44 888.388C2441.94 891.131 2443.62 894.372 2445.49 898.112L2446.05 897.364C2444.81 892.128 2443.87 887.079 2443.25 882.217C2442.62 877.23 2442.31 872.306 2442.31 867.444V819.946ZM2520.93 938.317V845.191H2487.27V819.946H2584.51V845.191H2550.85V938.317H2520.93ZM2654.42 907.836C2659.91 909.706 2665.89 911.202 2672.37 912.324C2678.98 913.321 2685.53 913.82 2692.01 913.82C2700.86 913.82 2707.4 913.446 2711.64 912.698C2716.01 911.825 2718.87 910.516 2720.24 908.771C2721.62 907.026 2722.3 904.782 2722.3 902.039C2722.3 899.67 2721.8 897.8 2720.81 896.429C2719.81 895.058 2717.88 893.998 2715.01 893.25C2712.14 892.377 2707.9 891.692 2702.29 891.193L2689.95 890.071C2680.73 889.198 2673.43 887.266 2668.07 884.274C2662.84 881.282 2659.1 877.293 2656.85 872.306C2654.73 867.195 2653.67 861.086 2653.67 853.98C2653.67 845.503 2655.36 838.646 2658.72 833.41C2662.21 828.174 2667.82 824.372 2675.55 822.003C2683.28 819.51 2693.57 818.263 2706.41 818.263C2723.11 818.263 2736.89 820.445 2747.73 824.808L2747.17 850.24L2746.61 850.988C2734.27 846.625 2721.37 844.443 2707.9 844.443C2701.42 844.443 2696.43 844.817 2692.94 845.565C2689.45 846.188 2687.02 847.248 2685.65 848.744C2684.28 850.24 2683.59 852.359 2683.59 855.102C2683.59 857.845 2684.03 859.902 2684.9 861.273C2685.9 862.644 2687.83 863.704 2690.7 864.452C2693.57 865.075 2697.74 865.699 2703.23 866.322L2715.01 867.631C2724.98 868.753 2732.65 870.748 2738.01 873.615C2743.37 876.482 2747.05 880.347 2749.04 885.209C2751.16 889.946 2752.22 895.743 2752.22 902.6C2752.22 910.953 2750.41 917.934 2746.8 923.544C2743.31 929.029 2737.57 933.143 2729.59 935.886C2721.62 938.629 2710.96 940 2697.62 940C2688.89 940 2681.04 939.564 2674.06 938.691C2667.07 937.694 2660.28 936.385 2653.67 934.764V908.397L2654.42 907.836ZM2799.99 938.317V901.665L2761.65 820.507V819.946H2794.38C2798.24 830.044 2801.29 838.147 2803.54 844.256C2805.91 850.24 2807.72 854.977 2808.96 858.468C2810.33 861.834 2811.39 864.577 2812.14 866.696C2812.89 868.815 2813.7 871.059 2814.57 873.428H2815.32C2816.19 871.059 2817 868.815 2817.75 866.696C2818.5 864.577 2819.5 861.834 2820.74 858.468C2822.11 854.977 2823.92 850.24 2826.17 844.256C2828.53 838.147 2831.65 830.044 2835.52 819.946H2868.24V820.507L2829.91 901.665V938.317H2799.99ZM2878.4 907.836C2883.88 909.706 2889.87 911.202 2896.35 912.324C2902.96 913.321 2909.5 913.82 2915.98 913.82C2924.84 913.82 2931.38 913.446 2935.62 912.698C2939.98 911.825 2942.85 910.516 2944.22 908.771C2945.59 907.026 2946.28 904.782 2946.28 902.039C2946.28 899.67 2945.78 897.8 2944.78 896.429C2943.78 895.058 2941.85 893.998 2938.99 893.25C2936.12 892.377 2931.88 891.692 2926.27 891.193L2913.93 890.071C2904.7 889.198 2897.41 887.266 2892.05 884.274C2886.81 881.282 2883.07 877.293 2880.83 872.306C2878.71 867.195 2877.65 861.086 2877.65 853.98C2877.65 845.503 2879.33 838.646 2882.7 833.41C2886.19 828.174 2891.8 824.372 2899.53 822.003C2907.26 819.51 2917.54 818.263 2930.38 818.263C2947.09 818.263 2960.86 820.445 2971.71 824.808L2971.15 850.24L2970.59 850.988C2958.25 846.625 2945.34 844.443 2931.88 844.443C2925.4 844.443 2920.41 844.817 2916.92 845.565C2913.43 846.188 2911 847.248 2909.63 848.744C2908.25 850.24 2907.57 852.359 2907.57 855.102C2907.57 857.845 2908.01 859.902 2908.88 861.273C2909.88 862.644 2911.81 863.704 2914.68 864.452C2917.54 865.075 2921.72 865.699 2927.2 866.322L2938.99 867.631C2948.96 868.753 2956.63 870.748 2961.99 873.615C2967.35 876.482 2971.02 880.347 2973.02 885.209C2975.14 889.946 2976.2 895.743 2976.2 902.6C2976.2 910.953 2974.39 917.934 2970.78 923.544C2967.28 929.029 2961.55 933.143 2953.57 935.886C2945.59 938.629 2934.93 940 2921.59 940C2912.87 940 2905.01 939.564 2898.03 938.691C2891.05 937.694 2884.26 936.385 2877.65 934.764V908.397L2878.4 907.836ZM3021.16 938.317V845.191H2987.5V819.946H3084.74V845.191H3051.08V938.317H3021.16ZM3099.7 938.317V819.946H3187.59V844.256H3129.62V866.696H3179.93V891.006H3129.62V914.007H3187.59V938.317H3099.7ZM3258.43 932.333C3256.31 925.601 3254.13 918.433 3251.89 910.828C3249.77 903.223 3247.65 895.681 3245.53 888.201C3243.41 880.721 3241.48 873.74 3239.73 867.257C3237.99 860.774 3236.49 855.164 3235.24 850.427C3234 845.69 3233.12 842.324 3232.62 840.329L3231.88 840.516C3232.25 842.76 3232.56 845.752 3232.81 849.492C3233.06 853.107 3233.25 856.972 3233.37 861.086C3233.5 865.075 3233.56 868.753 3233.56 872.119V938.317H3204.95V819.946H3255.06C3256.81 826.553 3258.62 833.535 3260.49 840.89C3262.48 848.121 3264.41 855.351 3266.28 862.582C3268.28 869.688 3270.02 876.482 3271.52 882.965C3273.02 889.323 3274.08 894.871 3274.7 899.608H3275.07C3275.7 894.871 3276.69 889.323 3278.07 882.965C3279.56 876.607 3281.24 869.813 3283.11 862.582C3284.98 855.351 3286.92 848.121 3288.91 840.89C3290.91 833.535 3292.71 826.553 3294.33 819.946H3343.7V938.317H3315.47V872.119C3315.47 868.753 3315.53 865.075 3315.65 861.086C3315.78 856.972 3315.96 853.107 3316.21 849.492C3316.59 845.752 3316.9 842.76 3317.15 840.516L3316.4 840.329C3315.9 842.324 3315.03 845.69 3313.78 850.427C3312.54 855.164 3310.98 860.837 3309.11 867.444C3307.36 873.927 3305.43 880.908 3303.31 888.388C3301.19 895.868 3299.01 903.41 3296.77 911.015C3294.65 918.495 3292.59 925.601 3290.59 932.333H3258.43Z" fill="white"/>
</svg>
