<svg width="168" height="174" viewBox="0 0 168 174" fill="none" xmlns="http://www.w3.org/2000/svg">
<rect width="168" height="174" rx="48" fill="white"/>
<path d="M18.0146 48.7656L69.0146 19.7656V80.2416L18.0146 48.7656Z" fill="#0E8DEC"/>
<path d="M69.0146 80.2416L18.0146 48.7656L18.0146 105.266C17.6813 113.599 22.9146 132.066 46.5146 139.266C51.348 140.432 60.5 142.265 69.0146 138.265V80.2416Z" fill="#004797"/>
<path d="M118.5 49.2652L69 19.7652V80.2652L118.5 49.2652Z" fill="#283253"/>
<path d="M69 80.2652L118.5 49.2652L118.5 76.7652C114.167 75.4319 102.8 75.7652 92 87.7652C81.2 99.7652 81.8333 113.765 83.5 119.265L85.5 125.265L69 138.265V80.2652Z" fill="#3E4361"/>
<path d="M69 34.2651L57.5 26.2651M69 34.2651L55 42.9678M69 34.2651L106 58.2651V77.9764M69 34.2651L80.5 26.7651M33 116.265L32 57.2651L55 42.9678M18 75.2651L59 99.7847M88 93.7651L69 105.765L59 99.7847M55 42.9678L42.5 34.7651M55 42.9678L65.8829 49.7651M91.5 88.6521V65.7651L65.8829 49.7651M100.5 38.7651L51.5 69.2651V105.765M51.5 140.106V105.765M51.5 105.765L40 99.2651V91.7651M51.5 105.765L59 110.265M59 99.7847V95.7651V102.765M65.8829 49.7651L59 54.2651M65.8829 49.7651L75.5 43.7651" stroke="white" stroke-width="0.75"/>
<circle cx="32.4999" cy="83.2653" r="3.5" transform="rotate(6.79998 32.4999 83.2653)" fill="white"/>
<ellipse cx="66.1355" cy="49.2937" rx="3.5" ry="2.5" transform="rotate(19.5852 66.1355 49.2937)" fill="white"/>
<path d="M95.5 78.2651C95.5 80.7504 93.9853 82.7651 91.5 82.7651C89 83.2651 87.5 80.7504 87.5 78.2651C87.5 75.7799 89.0147 73.7651 91.5 73.7651C93.9853 73.7651 95.5 75.7799 95.5 78.2651Z" fill="white"/>
<circle cx="33" cy="117.265" r="1.5" fill="white"/>
<circle cx="40" cy="99.2651" r="1.5" fill="white"/>
<circle cx="59.5" cy="110.765" r="1.5" fill="white"/>
<circle cx="59" cy="103.265" r="1.5" fill="white"/>
<circle cx="59" cy="95.7651" r="1.5" fill="white"/>
<circle cx="106" cy="69.2651" r="1.5" fill="white"/>
<circle cx="40" cy="92.2651" r="1.5" fill="white"/>
<circle cx="58.5" cy="54.2651" r="1.5" fill="white"/>
<circle cx="75" cy="44.2651" r="1.5" fill="white"/>
<circle cx="79.5" cy="40.7651" r="1.5" fill="white"/>
<circle cx="62.5" cy="38.2651" r="1.5" fill="white"/>
<path d="M69.5 146.275C51.5 148.65 35.5 139.148 25 132.497C33 147.225 63.5 167.654 101 147.7C121.088 137.011 116.821 122.258 133 103.041C139 95.9151 138 56.9576 138 40.8044H150L131 18L111 40.8044H122C122 100.666 122 85.4631 113 112.068C104 138.673 82.1264 144.609 69.5 146.275Z" fill="url(#paint0_linear_152_200)"/>
<circle cx="118.5" cy="111.265" r="31.5" fill="url(#paint1_linear_152_200)"/>
<path d="M133.5 98.7651H126.5V95.2651C126.5 93.3401 124.925 91.7651 123 91.7651H105.5C103.575 91.7651 102 93.3401 102 95.2651V125.015C102 125.978 102.787 126.765 103.75 126.765H135.25C136.213 126.765 137 125.978 137 125.015V102.265C137 100.34 135.425 98.7651 133.5 98.7651ZM133.5 123.265H105.5V95.2651H123V100.515C123 101.478 123.787 102.265 124.75 102.265H133.5V123.265Z" fill="url(#paint2_linear_152_200)"/>
<path d="M116 99.7651H119.5V103.265H116V99.7651ZM109 99.7651H112.5V103.265H109V99.7651ZM109 106.765H112.5V110.265H109V106.765ZM116 106.765H119.5V110.265H116V106.765ZM126.5 106.765H130V110.265H126.5V106.765ZM116 113.765H119.5V117.265H116V113.765ZM109 113.765H112.5V117.265H109V113.765ZM126.5 113.765H130V117.265H126.5V113.765Z" fill="url(#paint3_linear_152_200)"/>
<defs>
<linearGradient id="paint0_linear_152_200" x1="128" y1="25.1264" x2="49.4424" y2="152.32" gradientUnits="userSpaceOnUse">
<stop stop-color="#0A1A3C"/>
<stop offset="0.490385" stop-color="#3E4361"/>
<stop offset="1" stop-color="#004797"/>
</linearGradient>
<linearGradient id="paint1_linear_152_200" x1="125.5" y1="79.7651" x2="105.5" y2="135.765" gradientUnits="userSpaceOnUse">
<stop stop-color="#3E4361"/>
<stop offset="1" stop-color="#194581"/>
</linearGradient>
<linearGradient id="paint2_linear_152_200" x1="130.5" y1="91.7651" x2="95.5" y2="129.265" gradientUnits="userSpaceOnUse">
<stop stop-color="#66BFFF"/>
<stop offset="1" stop-color="#5386AC"/>
</linearGradient>
<linearGradient id="paint3_linear_152_200" x1="125" y1="103.765" x2="109" y2="117.765" gradientUnits="userSpaceOnUse">
<stop stop-color="#23C8E5"/>
<stop offset="1" stop-color="#C9E3F6"/>
</linearGradient>
</defs>
</svg>
