<svg width="387" height="240" viewBox="0 0 387 240" fill="none" xmlns="http://www.w3.org/2000/svg">
<rect x="137.5" y="10" width="112" height="117" rx="30" fill="#EEEEEE"/>
<path d="M149.51 42.7334L183.51 23.1899V63.9455L149.51 42.7334Z" fill="#0E8DEC"/>
<path d="M183.51 63.9455L149.51 42.7334L149.51 80.8095C149.288 86.4254 152.776 98.8704 168.51 103.723C171.732 104.509 177.833 105.744 183.51 103.048V63.9455Z" fill="#004797"/>
<path d="M216.5 43.0697L183.5 23.1892V63.961L216.5 43.0697Z" fill="#283253"/>
<path d="M183.5 63.961L216.5 43.0697L216.5 61.6023C213.611 60.7037 206.033 60.9283 198.833 69.0153C191.633 77.1023 192.056 86.537 193.167 90.2436L194.5 94.287L183.5 103.048V63.961Z" fill="#3E4361"/>
<path d="M183.5 32.9611L175.833 27.5698M183.5 32.9611L174.167 38.826M183.5 32.9611L208.167 49.135V62.4187M183.5 32.9611L191.167 27.9068M159.5 88.222L158.833 48.4611L174.167 38.826M149.5 60.5916L176.833 77.1156M196.167 73.059L183.5 81.1459L176.833 77.1156M174.167 38.826L165.833 33.2981M174.167 38.826L181.422 43.4068M198.5 69.6132V54.1894L181.422 43.4068M204.5 35.9937L171.833 56.5481V81.1459M171.833 104.289V81.1459M171.833 81.1459L164.167 76.7655V71.7111M171.833 81.1459L176.833 84.1785M176.833 77.1156V74.4068V79.1242M181.422 43.4068L176.833 46.4394M181.422 43.4068L187.833 39.3633" stroke="white" stroke-width="0.75"/>
<ellipse cx="2.33369" cy="2.35834" rx="2.33369" ry="2.35834" transform="matrix(0.992813 0.119672 -0.117148 0.993114 157.126 63.3618)" fill="white"/>
<ellipse cx="2.3362" cy="1.68276" rx="2.3362" ry="1.68276" transform="matrix(0.940989 0.338437 -0.332003 0.943278 179.951 40.7109)" fill="white"/>
<path d="M201.167 62.6132C201.167 64.288 200.157 65.6458 198.5 65.6458C196.833 65.9827 195.833 64.288 195.833 62.6132C195.833 60.9383 196.843 59.5806 198.5 59.5806C200.157 59.5806 201.167 60.9383 201.167 62.6132Z" fill="white"/>
<ellipse cx="159.5" cy="88.8961" rx="1" ry="1.01087" fill="white"/>
<ellipse cx="164.167" cy="76.7653" rx="1" ry="1.01087" fill="white"/>
<ellipse cx="177.167" cy="84.5153" rx="1" ry="1.01087" fill="white"/>
<ellipse cx="176.833" cy="79.4611" rx="1" ry="1.01087" fill="white"/>
<ellipse cx="176.833" cy="74.4069" rx="1" ry="1.01087" fill="white"/>
<ellipse cx="208.167" cy="56.548" rx="1" ry="1.01087" fill="white"/>
<ellipse cx="164.167" cy="72.048" rx="1" ry="1.01087" fill="white"/>
<ellipse cx="176.5" cy="46.4396" rx="1" ry="1.01087" fill="white"/>
<ellipse cx="187.5" cy="39.7003" rx="1" ry="1.01087" fill="white"/>
<ellipse cx="190.5" cy="37.3414" rx="1" ry="1.01087" fill="white"/>
<ellipse cx="179.167" cy="35.6569" rx="1" ry="1.01087" fill="white"/>
<path d="M183.833 108.446C171.833 110.047 161.167 103.644 154.167 99.1612C159.5 109.086 179.833 122.854 204.833 109.407C218.226 102.203 215.381 92.2608 226.167 79.3106C230.167 74.508 229.5 48.254 229.5 37.3682H237.5L224.833 22L211.5 37.3682H218.833C218.833 77.7097 218.833 67.4643 212.833 85.3938C206.833 103.323 192.251 107.323 183.833 108.446Z" fill="url(#paint0_linear_144_112)"/>
<ellipse cx="216.5" cy="84.8528" rx="21" ry="21.2283" fill="url(#paint1_linear_144_112)"/>
<path d="M226.5 76.4288H221.833V74.0701C221.833 72.7728 220.783 71.7114 219.5 71.7114H207.833C206.55 71.7114 205.5 72.7728 205.5 74.0701V94.119C205.5 94.7677 206.025 95.2984 206.667 95.2984H227.667C228.308 95.2984 228.833 94.7677 228.833 94.119V78.7875C228.833 77.4902 227.783 76.4288 226.5 76.4288ZM226.5 92.9397H207.833V74.0701H219.5V77.6082C219.5 78.2568 220.025 78.7875 220.667 78.7875H226.5V92.9397Z" fill="url(#paint2_linear_144_112)"/>
<path d="M214.833 77.1025H217.167V79.4612H214.833V77.1025ZM210.167 77.1025H212.5V79.4612H210.167V77.1025ZM210.167 81.8199H212.5V84.1786H210.167V81.8199ZM214.833 81.8199H217.167V84.1786H214.833V81.8199ZM221.833 81.8199H224.167V84.1786H221.833V81.8199ZM214.833 86.5373H217.167V88.896H214.833V86.5373ZM210.167 86.5373H212.5V88.896H210.167V86.5373ZM221.833 86.5373H224.167V88.896H221.833V86.5373Z" fill="url(#paint3_linear_144_112)"/>
<path d="M28.468 190V146.364H56.4226V152.99H36.3729V164.837H54.505V171.463H36.3729V190H28.468ZM63.2834 190V157.273H70.9964V190H63.2834ZM67.1612 152.628C65.9396 152.628 64.8885 152.223 64.0078 151.413C63.1271 150.589 62.6868 149.602 62.6868 148.452C62.6868 147.287 63.1271 146.3 64.0078 145.49C64.8885 144.666 65.9396 144.254 67.1612 144.254C68.397 144.254 69.4482 144.666 70.3146 145.49C71.1953 146.3 71.6357 147.287 71.6357 148.452C71.6357 149.602 71.1953 150.589 70.3146 151.413C69.4482 152.223 68.397 152.628 67.1612 152.628ZM85.2347 157.273L91.8398 169.354L98.5515 157.273H106.712L96.8469 173.636L106.882 190H98.7646L91.8398 178.217L84.979 190H76.7972L86.7688 173.636L77.0529 157.273H85.2347ZM125.936 190.639C122.655 190.639 119.821 189.957 117.435 188.594C115.063 187.216 113.237 185.27 111.959 182.756C110.68 180.227 110.041 177.251 110.041 173.828C110.041 170.462 110.68 167.507 111.959 164.964C113.251 162.408 115.055 160.419 117.371 158.999C119.686 157.564 122.406 156.847 125.531 156.847C127.548 156.847 129.452 157.173 131.241 157.827C133.045 158.466 134.636 159.46 136.014 160.81C137.406 162.159 138.5 163.878 139.295 165.966C140.091 168.04 140.489 170.511 140.489 173.381V175.746H113.663V170.547H133.095C133.081 169.07 132.761 167.756 132.136 166.605C131.511 165.44 130.638 164.524 129.516 163.857C128.408 163.189 127.115 162.855 125.638 162.855C124.061 162.855 122.676 163.239 121.483 164.006C120.29 164.759 119.359 165.753 118.692 166.989C118.038 168.21 117.705 169.553 117.69 171.016V175.554C117.69 177.457 118.038 179.091 118.734 180.455C119.43 181.804 120.403 182.841 121.653 183.565C122.903 184.276 124.366 184.631 126.043 184.631C127.165 184.631 128.18 184.474 129.089 184.162C129.999 183.835 130.787 183.359 131.455 182.734C132.122 182.109 132.626 181.335 132.967 180.412L140.169 181.222C139.714 183.125 138.848 184.787 137.57 186.207C136.305 187.614 134.686 188.707 132.712 189.489C130.737 190.256 128.479 190.639 125.936 190.639ZM159.159 190.575C156.588 190.575 154.287 189.915 152.255 188.594C150.224 187.273 148.619 185.355 147.44 182.841C146.261 180.327 145.672 177.273 145.672 173.679C145.672 170.043 146.268 166.974 147.461 164.474C148.669 161.96 150.295 160.064 152.341 158.786C154.386 157.493 156.666 156.847 159.18 156.847C161.098 156.847 162.674 157.173 163.91 157.827C165.146 158.466 166.126 159.24 166.85 160.149C167.575 161.044 168.136 161.889 168.534 162.685H168.853V146.364H176.588V190H169.002V184.844H168.534C168.136 185.639 167.561 186.484 166.808 187.379C166.055 188.26 165.061 189.013 163.825 189.638C162.589 190.263 161.034 190.575 159.159 190.575ZM161.311 184.247C162.944 184.247 164.336 183.807 165.487 182.926C166.637 182.031 167.511 180.788 168.108 179.197C168.704 177.607 169.002 175.753 169.002 173.636C169.002 171.52 168.704 169.68 168.108 168.118C167.525 166.555 166.659 165.341 165.508 164.474C164.372 163.608 162.973 163.175 161.311 163.175C159.592 163.175 158.157 163.622 157.007 164.517C155.856 165.412 154.99 166.648 154.407 168.224C153.825 169.801 153.534 171.605 153.534 173.636C153.534 175.682 153.825 177.507 154.407 179.112C155.004 180.703 155.877 181.96 157.028 182.884C158.193 183.793 159.62 184.247 161.311 184.247Z" fill="white"/>
<path d="M205.634 190H197.197L212.559 146.364H222.317L237.701 190H229.263L217.609 155.312H217.268L205.634 190ZM205.911 172.891H228.923V179.24H205.911V172.891ZM268.447 165.923L261.415 166.69C261.217 165.98 260.869 165.312 260.371 164.688C259.888 164.062 259.235 163.558 258.411 163.175C257.587 162.791 256.579 162.599 255.386 162.599C253.781 162.599 252.431 162.947 251.337 163.643C250.258 164.339 249.725 165.241 249.739 166.349C249.725 167.301 250.073 168.075 250.783 168.672C251.508 169.268 252.701 169.759 254.363 170.142L259.945 171.335C263.042 172.003 265.343 173.061 266.849 174.51C268.369 175.959 269.136 177.855 269.15 180.199C269.136 182.259 268.532 184.077 267.339 185.653C266.16 187.216 264.519 188.437 262.417 189.318C260.315 190.199 257.9 190.639 255.173 190.639C251.167 190.639 247.942 189.801 245.499 188.125C243.056 186.435 241.6 184.084 241.131 181.072L248.653 180.348C248.994 181.825 249.718 182.94 250.826 183.693C251.934 184.446 253.376 184.822 255.151 184.822C256.984 184.822 258.454 184.446 259.562 183.693C260.684 182.94 261.245 182.01 261.245 180.902C261.245 179.964 260.883 179.19 260.158 178.58C259.448 177.969 258.34 177.5 256.835 177.173L251.252 176.001C248.113 175.348 245.79 174.247 244.285 172.699C242.779 171.136 242.033 169.162 242.048 166.776C242.033 164.759 242.58 163.011 243.688 161.534C244.81 160.043 246.366 158.892 248.354 158.082C250.357 157.259 252.665 156.847 255.279 156.847C259.114 156.847 262.133 157.663 264.335 159.297C266.55 160.93 267.921 163.139 268.447 165.923ZM301.376 165.923L294.345 166.69C294.146 165.98 293.798 165.312 293.301 164.688C292.818 164.062 292.165 163.558 291.341 163.175C290.517 162.791 289.509 162.599 288.315 162.599C286.71 162.599 285.361 162.947 284.267 163.643C283.188 164.339 282.655 165.241 282.669 166.349C282.655 167.301 283.003 168.075 283.713 168.672C284.438 169.268 285.631 169.759 287.293 170.142L292.875 171.335C295.972 172.003 298.273 173.061 299.778 174.51C301.298 175.959 302.065 177.855 302.08 180.199C302.065 182.259 301.462 184.077 300.268 185.653C299.089 187.216 297.449 188.437 295.347 189.318C293.244 190.199 290.83 190.639 288.102 190.639C284.097 190.639 280.872 189.801 278.429 188.125C275.986 186.435 274.53 184.084 274.061 181.072L281.582 180.348C281.923 181.825 282.648 182.94 283.756 183.693C284.864 184.446 286.305 184.822 288.081 184.822C289.913 184.822 291.384 184.446 292.491 183.693C293.614 182.94 294.175 182.01 294.175 180.902C294.175 179.964 293.813 179.19 293.088 178.58C292.378 177.969 291.27 177.5 289.764 177.173L284.182 176.001C281.043 175.348 278.72 174.247 277.214 172.699C275.709 171.136 274.963 169.162 274.977 166.776C274.963 164.759 275.51 163.011 276.618 161.534C277.74 160.043 279.295 158.892 281.284 158.082C283.287 157.259 285.595 156.847 288.209 156.847C292.044 156.847 295.063 157.663 297.264 159.297C299.48 160.93 300.851 163.139 301.376 165.923ZM322.928 190.639C319.647 190.639 316.813 189.957 314.427 188.594C312.055 187.216 310.229 185.27 308.951 182.756C307.673 180.227 307.033 177.251 307.033 173.828C307.033 170.462 307.673 167.507 308.951 164.964C310.244 162.408 312.048 160.419 314.363 158.999C316.678 157.564 319.398 156.847 322.523 156.847C324.54 156.847 326.444 157.173 328.234 157.827C330.038 158.466 331.629 159.46 333.006 160.81C334.398 162.159 335.492 163.878 336.288 165.966C337.083 168.04 337.481 170.511 337.481 173.381V175.746H310.656V170.547H330.087C330.073 169.07 329.754 167.756 329.129 166.605C328.504 165.44 327.63 164.524 326.508 163.857C325.4 163.189 324.107 162.855 322.63 162.855C321.053 162.855 319.668 163.239 318.475 164.006C317.282 164.759 316.352 165.753 315.684 166.989C315.031 168.21 314.697 169.553 314.683 171.016V175.554C314.683 177.457 315.031 179.091 315.727 180.455C316.423 181.804 317.396 182.841 318.646 183.565C319.896 184.276 321.359 184.631 323.035 184.631C324.157 184.631 325.173 184.474 326.082 184.162C326.991 183.835 327.779 183.359 328.447 182.734C329.114 182.109 329.619 181.335 329.96 180.412L337.161 181.222C336.707 183.125 335.84 184.787 334.562 186.207C333.298 187.614 331.678 188.707 329.704 189.489C327.729 190.256 325.471 190.639 322.928 190.639ZM360.348 157.273V163.239H341.534V157.273H360.348ZM346.179 149.432H353.892V180.156C353.892 181.193 354.049 181.989 354.361 182.543C354.688 183.082 355.114 183.452 355.64 183.651C356.165 183.849 356.748 183.949 357.387 183.949C357.87 183.949 358.31 183.913 358.708 183.842C359.12 183.771 359.432 183.707 359.645 183.651L360.945 189.68C360.533 189.822 359.944 189.979 359.176 190.149C358.424 190.32 357.5 190.419 356.407 190.447C354.475 190.504 352.735 190.213 351.186 189.574C349.638 188.92 348.409 187.912 347.5 186.548C346.605 185.185 346.165 183.48 346.179 181.435V149.432Z" fill="#0077FF"/>
<path d="M26.1424 198H29.6111L37.7674 217.922H38.0486L46.2049 198H49.6736V222H46.9549V203.766H46.7205L39.2205 222H36.5955L29.0955 203.766H28.8611V222H26.1424V198ZM61.0826 222.422C59.942 222.422 58.9069 222.207 57.9772 221.777C57.0475 221.34 56.3092 220.711 55.7623 219.891C55.2155 219.063 54.942 218.062 54.942 216.891C54.942 215.859 55.1451 215.023 55.5514 214.383C55.9576 213.734 56.5006 213.227 57.1803 212.859C57.86 212.492 58.61 212.219 59.4303 212.039C60.2584 211.852 61.0905 211.703 61.9264 211.594C63.0201 211.453 63.9069 211.348 64.5865 211.277C65.274 211.199 65.774 211.07 66.0865 210.891C66.4069 210.711 66.567 210.398 66.567 209.953V209.859C66.567 208.703 66.2506 207.805 65.6178 207.164C64.9928 206.523 64.0436 206.203 62.7701 206.203C61.4498 206.203 60.4147 206.492 59.6647 207.07C58.9147 207.648 58.3873 208.266 58.0826 208.922L55.4576 207.984C55.9264 206.891 56.5514 206.039 57.3326 205.43C58.1217 204.812 58.9811 204.383 59.9108 204.141C60.8483 203.891 61.7701 203.766 62.6764 203.766C63.2545 203.766 63.9186 203.836 64.6686 203.977C65.4264 204.109 66.1569 204.387 66.86 204.809C67.5709 205.23 68.1608 205.867 68.6295 206.719C69.0983 207.57 69.3326 208.711 69.3326 210.141V222H66.567V219.562H66.4264C66.2389 219.953 65.9264 220.371 65.4889 220.816C65.0514 221.262 64.4694 221.641 63.7428 221.953C63.0162 222.266 62.1295 222.422 61.0826 222.422ZM61.5045 219.938C62.5983 219.938 63.5201 219.723 64.2701 219.293C65.028 218.863 65.5983 218.309 65.9811 217.629C66.3717 216.949 66.567 216.234 66.567 215.484V212.953C66.4498 213.094 66.192 213.223 65.7936 213.34C65.403 213.449 64.9498 213.547 64.4342 213.633C63.9264 213.711 63.4303 213.781 62.9459 213.844C62.4694 213.898 62.0826 213.945 61.7858 213.984C61.067 214.078 60.3951 214.23 59.7701 214.441C59.153 214.645 58.653 214.953 58.2701 215.367C57.8951 215.773 57.7076 216.328 57.7076 217.031C57.7076 217.992 58.0631 218.719 58.774 219.211C59.4928 219.695 60.403 219.938 61.5045 219.938ZM77.8061 211.172V222H75.0405V204H77.7124V206.812H77.9467C78.3686 205.898 79.0092 205.164 79.8686 204.609C80.728 204.047 81.8374 203.766 83.1967 203.766C84.4155 203.766 85.4819 204.016 86.396 204.516C87.31 205.008 88.021 205.758 88.5288 206.766C89.0366 207.766 89.2905 209.031 89.2905 210.563V222H86.5249V210.75C86.5249 209.336 86.1577 208.234 85.4233 207.445C84.6889 206.648 83.6811 206.25 82.3999 206.25C81.5171 206.25 80.728 206.441 80.0327 206.824C79.3452 207.207 78.8022 207.766 78.4038 208.5C78.0053 209.234 77.8061 210.125 77.8061 211.172ZM100.301 222.422C99.1605 222.422 98.1253 222.207 97.1956 221.777C96.2659 221.34 95.5276 220.711 94.9808 219.891C94.4339 219.063 94.1605 218.062 94.1605 216.891C94.1605 215.859 94.3636 215.023 94.7698 214.383C95.1761 213.734 95.719 213.227 96.3987 212.859C97.0784 212.492 97.8284 212.219 98.6487 212.039C99.4769 211.852 100.309 211.703 101.145 211.594C102.239 211.453 103.125 211.348 103.805 211.277C104.492 211.199 104.992 211.07 105.305 210.891C105.625 210.711 105.785 210.398 105.785 209.953V209.859C105.785 208.703 105.469 207.805 104.836 207.164C104.211 206.523 103.262 206.203 101.989 206.203C100.668 206.203 99.6331 206.492 98.8831 207.07C98.1331 207.648 97.6058 208.266 97.3011 208.922L94.6761 207.984C95.1448 206.891 95.7698 206.039 96.5511 205.43C97.3401 204.812 98.1995 204.383 99.1292 204.141C100.067 203.891 100.989 203.766 101.895 203.766C102.473 203.766 103.137 203.836 103.887 203.977C104.645 204.109 105.375 204.387 106.078 204.809C106.789 205.23 107.379 205.867 107.848 206.719C108.317 207.57 108.551 208.711 108.551 210.141V222H105.785V219.562H105.645C105.457 219.953 105.145 220.371 104.707 220.816C104.27 221.262 103.688 221.641 102.961 221.953C102.235 222.266 101.348 222.422 100.301 222.422ZM100.723 219.938C101.817 219.938 102.739 219.723 103.489 219.293C104.246 218.863 104.817 218.309 105.2 217.629C105.59 216.949 105.785 216.234 105.785 215.484V212.953C105.668 213.094 105.41 213.223 105.012 213.34C104.621 213.449 104.168 213.547 103.653 213.633C103.145 213.711 102.649 213.781 102.164 213.844C101.688 213.898 101.301 213.945 101.004 213.984C100.285 214.078 99.6136 214.23 98.9886 214.441C98.3714 214.645 97.8714 214.953 97.4886 215.367C97.1136 215.773 96.9261 216.328 96.9261 217.031C96.9261 217.992 97.2815 218.719 97.9925 219.211C98.7112 219.695 99.6214 219.938 100.723 219.938ZM121.525 229.125C120.189 229.125 119.04 228.953 118.079 228.609C117.118 228.273 116.318 227.828 115.677 227.273C115.044 226.727 114.54 226.141 114.165 225.516L116.368 223.969C116.618 224.297 116.935 224.672 117.318 225.094C117.7 225.523 118.224 225.895 118.888 226.207C119.56 226.527 120.439 226.687 121.525 226.687C122.978 226.687 124.177 226.336 125.122 225.633C126.068 224.93 126.54 223.828 126.54 222.328V218.672H126.306C126.103 219 125.814 219.406 125.439 219.891C125.071 220.367 124.54 220.793 123.845 221.168C123.157 221.535 122.228 221.719 121.056 221.719C119.603 221.719 118.298 221.375 117.142 220.688C115.993 220 115.083 219 114.411 217.687C113.747 216.375 113.415 214.781 113.415 212.906C113.415 211.062 113.739 209.457 114.388 208.09C115.036 206.715 115.939 205.652 117.095 204.902C118.251 204.145 119.587 203.766 121.103 203.766C122.275 203.766 123.204 203.961 123.892 204.352C124.587 204.734 125.118 205.172 125.485 205.664C125.86 206.148 126.15 206.547 126.353 206.859H126.634V204H129.306V222.516C129.306 224.062 128.954 225.32 128.251 226.289C127.556 227.266 126.618 227.98 125.439 228.434C124.267 228.895 122.962 229.125 121.525 229.125ZM121.431 219.234C122.54 219.234 123.478 218.98 124.243 218.473C125.009 217.965 125.591 217.234 125.989 216.281C126.388 215.328 126.587 214.187 126.587 212.859C126.587 211.562 126.392 210.418 126.001 209.426C125.61 208.434 125.032 207.656 124.267 207.094C123.501 206.531 122.556 206.25 121.431 206.25C120.259 206.25 119.282 206.547 118.501 207.141C117.728 207.734 117.146 208.531 116.755 209.531C116.372 210.531 116.181 211.641 116.181 212.859C116.181 214.109 116.376 215.215 116.767 216.176C117.165 217.129 117.751 217.879 118.525 218.426C119.306 218.965 120.275 219.234 121.431 219.234ZM142.575 222.375C140.841 222.375 139.345 221.992 138.087 221.227C136.837 220.453 135.872 219.375 135.192 217.992C134.52 216.602 134.185 214.984 134.185 213.141C134.185 211.297 134.52 209.672 135.192 208.266C135.872 206.852 136.817 205.75 138.028 204.961C139.247 204.164 140.669 203.766 142.294 203.766C143.231 203.766 144.157 203.922 145.071 204.234C145.985 204.547 146.817 205.055 147.567 205.758C148.317 206.453 148.915 207.375 149.36 208.523C149.806 209.672 150.028 211.086 150.028 212.766V213.937H136.153V211.547H147.216C147.216 210.531 147.013 209.625 146.606 208.828C146.208 208.031 145.638 207.402 144.895 206.941C144.161 206.48 143.294 206.25 142.294 206.25C141.192 206.25 140.239 206.523 139.435 207.07C138.638 207.609 138.024 208.312 137.595 209.18C137.165 210.047 136.95 210.977 136.95 211.969V213.563C136.95 214.922 137.185 216.074 137.653 217.02C138.13 217.957 138.79 218.672 139.634 219.164C140.478 219.648 141.458 219.891 142.575 219.891C143.302 219.891 143.958 219.789 144.544 219.586C145.138 219.375 145.649 219.063 146.079 218.648C146.509 218.227 146.841 217.703 147.075 217.078L149.747 217.828C149.466 218.734 148.993 219.531 148.329 220.219C147.665 220.898 146.845 221.43 145.868 221.812C144.892 222.188 143.794 222.375 142.575 222.375ZM154.895 222V204H157.567V206.812H157.802C158.177 205.852 158.782 205.105 159.618 204.574C160.454 204.035 161.458 203.766 162.63 203.766C163.817 203.766 164.805 204.035 165.595 204.574C166.391 205.105 167.013 205.852 167.458 206.812H167.645C168.106 205.883 168.798 205.145 169.72 204.598C170.641 204.043 171.747 203.766 173.036 203.766C174.645 203.766 175.962 204.27 176.985 205.277C178.009 206.277 178.52 207.836 178.52 209.953V222H175.755V209.953C175.755 208.625 175.391 207.676 174.665 207.105C173.938 206.535 173.083 206.25 172.098 206.25C170.833 206.25 169.852 206.633 169.157 207.398C168.462 208.156 168.114 209.117 168.114 210.281V222H165.302V209.672C165.302 208.648 164.97 207.824 164.305 207.199C163.641 206.566 162.786 206.25 161.739 206.25C161.02 206.25 160.348 206.441 159.723 206.824C159.106 207.207 158.606 207.738 158.223 208.418C157.848 209.09 157.661 209.867 157.661 210.75V222H154.895ZM191.784 222.375C190.049 222.375 188.553 221.992 187.296 221.227C186.046 220.453 185.081 219.375 184.401 217.992C183.729 216.602 183.393 214.984 183.393 213.141C183.393 211.297 183.729 209.672 184.401 208.266C185.081 206.852 186.026 205.75 187.237 204.961C188.456 204.164 189.878 203.766 191.503 203.766C192.44 203.766 193.366 203.922 194.28 204.234C195.194 204.547 196.026 205.055 196.776 205.758C197.526 206.453 198.124 207.375 198.569 208.523C199.014 209.672 199.237 211.086 199.237 212.766V213.937H185.362V211.547H196.424C196.424 210.531 196.221 209.625 195.815 208.828C195.417 208.031 194.846 207.402 194.104 206.941C193.37 206.48 192.503 206.25 191.503 206.25C190.401 206.25 189.448 206.523 188.643 207.07C187.846 207.609 187.233 208.312 186.803 209.18C186.374 210.047 186.159 210.977 186.159 211.969V213.563C186.159 214.922 186.393 216.074 186.862 217.02C187.339 217.957 187.999 218.672 188.842 219.164C189.686 219.648 190.667 219.891 191.784 219.891C192.51 219.891 193.167 219.789 193.753 219.586C194.346 219.375 194.858 219.063 195.288 218.648C195.717 218.227 196.049 217.703 196.284 217.078L198.956 217.828C198.674 218.734 198.202 219.531 197.538 220.219C196.874 220.898 196.053 221.43 195.077 221.812C194.1 222.188 193.003 222.375 191.784 222.375ZM206.87 211.172V222H204.104V204H206.776V206.812H207.01C207.432 205.898 208.073 205.164 208.932 204.609C209.792 204.047 210.901 203.766 212.26 203.766C213.479 203.766 214.545 204.016 215.459 204.516C216.374 205.008 217.084 205.758 217.592 206.766C218.1 207.766 218.354 209.031 218.354 210.563V222H215.588V210.75C215.588 209.336 215.221 208.234 214.487 207.445C213.752 206.648 212.745 206.25 211.463 206.25C210.581 206.25 209.792 206.441 209.096 206.824C208.409 207.207 207.866 207.766 207.467 208.5C207.069 209.234 206.87 210.125 206.87 211.172ZM231.896 204V206.344H222.568V204H231.896ZM225.286 199.687H228.052V216.844C228.052 217.625 228.165 218.211 228.392 218.602C228.626 218.984 228.923 219.242 229.283 219.375C229.65 219.5 230.036 219.562 230.443 219.562C230.747 219.562 230.997 219.547 231.193 219.516C231.388 219.477 231.544 219.445 231.661 219.422L232.224 221.906C232.036 221.977 231.775 222.047 231.439 222.117C231.103 222.195 230.677 222.234 230.161 222.234C229.38 222.234 228.615 222.066 227.865 221.73C227.122 221.395 226.505 220.883 226.013 220.195C225.529 219.508 225.286 218.641 225.286 217.594V199.687ZM260.157 204C260.017 202.812 259.446 201.891 258.446 201.234C257.446 200.578 256.22 200.25 254.767 200.25C253.704 200.25 252.774 200.422 251.978 200.766C251.188 201.109 250.571 201.582 250.126 202.184C249.688 202.785 249.47 203.469 249.47 204.234C249.47 204.875 249.622 205.426 249.927 205.887C250.239 206.34 250.638 206.719 251.122 207.023C251.606 207.32 252.114 207.566 252.646 207.762C253.177 207.949 253.665 208.102 254.11 208.219L256.548 208.875C257.173 209.039 257.868 209.266 258.634 209.555C259.407 209.844 260.146 210.238 260.849 210.738C261.56 211.23 262.146 211.863 262.606 212.637C263.067 213.41 263.298 214.359 263.298 215.484C263.298 216.781 262.958 217.953 262.278 219C261.606 220.047 260.622 220.879 259.325 221.496C258.036 222.113 256.47 222.422 254.626 222.422C252.907 222.422 251.419 222.145 250.161 221.59C248.911 221.035 247.927 220.262 247.208 219.27C246.497 218.277 246.095 217.125 246.001 215.812H249.001C249.079 216.719 249.384 217.469 249.915 218.062C250.454 218.648 251.134 219.086 251.954 219.375C252.782 219.656 253.673 219.797 254.626 219.797C255.735 219.797 256.731 219.617 257.614 219.258C258.497 218.891 259.196 218.383 259.712 217.734C260.228 217.078 260.485 216.313 260.485 215.437C260.485 214.641 260.263 213.992 259.817 213.492C259.372 212.992 258.786 212.586 258.06 212.273C257.333 211.961 256.548 211.687 255.704 211.453L252.751 210.609C250.876 210.07 249.392 209.301 248.298 208.301C247.204 207.301 246.657 205.992 246.657 204.375C246.657 203.031 247.021 201.859 247.747 200.859C248.481 199.852 249.466 199.07 250.7 198.516C251.942 197.953 253.329 197.672 254.86 197.672C256.407 197.672 257.782 197.949 258.985 198.504C260.188 199.051 261.142 199.801 261.845 200.754C262.556 201.707 262.931 202.789 262.97 204H260.157ZM270.142 228.75C269.674 228.75 269.256 228.711 268.889 228.633C268.521 228.563 268.267 228.492 268.127 228.422L268.83 225.984C269.502 226.156 270.096 226.219 270.611 226.172C271.127 226.125 271.584 225.895 271.982 225.48C272.389 225.074 272.76 224.414 273.096 223.5L273.611 222.094L266.955 204H269.955L274.924 218.344H275.111L280.08 204H283.08L275.439 224.625C275.096 225.555 274.67 226.324 274.162 226.934C273.654 227.551 273.064 228.008 272.392 228.305C271.728 228.602 270.978 228.75 270.142 228.75ZM300.14 208.031L297.656 208.734C297.5 208.32 297.269 207.918 296.965 207.527C296.668 207.129 296.261 206.801 295.746 206.543C295.23 206.285 294.57 206.156 293.765 206.156C292.664 206.156 291.746 206.41 291.011 206.918C290.285 207.418 289.922 208.055 289.922 208.828C289.922 209.516 290.172 210.059 290.672 210.457C291.172 210.855 291.953 211.187 293.015 211.453L295.687 212.109C297.297 212.5 298.496 213.098 299.285 213.902C300.074 214.699 300.468 215.727 300.468 216.984C300.468 218.016 300.172 218.937 299.578 219.75C298.992 220.562 298.172 221.203 297.117 221.672C296.062 222.141 294.836 222.375 293.437 222.375C291.601 222.375 290.082 221.977 288.879 221.18C287.675 220.383 286.914 219.219 286.593 217.687L289.218 217.031C289.468 218 289.941 218.727 290.636 219.211C291.34 219.695 292.258 219.938 293.39 219.938C294.679 219.938 295.703 219.664 296.461 219.117C297.226 218.562 297.609 217.898 297.609 217.125C297.609 216.5 297.39 215.977 296.953 215.555C296.515 215.125 295.843 214.805 294.937 214.594L291.937 213.891C290.289 213.5 289.078 212.895 288.304 212.074C287.539 211.246 287.156 210.211 287.156 208.969C287.156 207.953 287.441 207.055 288.011 206.273C288.59 205.492 289.375 204.879 290.367 204.434C291.367 203.988 292.5 203.766 293.765 203.766C295.547 203.766 296.945 204.156 297.961 204.937C298.984 205.719 299.711 206.75 300.14 208.031ZM313.12 204V206.344H303.792V204H313.12ZM306.51 199.687H309.276V216.844C309.276 217.625 309.389 218.211 309.616 218.602C309.85 218.984 310.147 219.242 310.506 219.375C310.874 219.5 311.26 219.562 311.667 219.562C311.971 219.562 312.221 219.547 312.417 219.516C312.612 219.477 312.768 219.445 312.885 219.422L313.448 221.906C313.26 221.977 312.999 222.047 312.663 222.117C312.327 222.195 311.901 222.234 311.385 222.234C310.604 222.234 309.838 222.066 309.088 221.73C308.346 221.395 307.729 220.883 307.237 220.195C306.752 219.508 306.51 218.641 306.51 217.594V199.687ZM325.293 222.375C323.559 222.375 322.063 221.992 320.805 221.227C319.555 220.453 318.59 219.375 317.911 217.992C317.239 216.602 316.903 214.984 316.903 213.141C316.903 211.297 317.239 209.672 317.911 208.266C318.59 206.852 319.536 205.75 320.746 204.961C321.965 204.164 323.387 203.766 325.012 203.766C325.95 203.766 326.875 203.922 327.789 204.234C328.703 204.547 329.536 205.055 330.286 205.758C331.036 206.453 331.633 207.375 332.078 208.523C332.524 209.672 332.746 211.086 332.746 212.766V213.937H318.871V211.547H329.934C329.934 210.531 329.731 209.625 329.325 208.828C328.926 208.031 328.356 207.402 327.614 206.941C326.879 206.48 326.012 206.25 325.012 206.25C323.911 206.25 322.957 206.523 322.153 207.07C321.356 207.609 320.743 208.312 320.313 209.18C319.883 210.047 319.668 210.977 319.668 211.969V213.563C319.668 214.922 319.903 216.074 320.371 217.02C320.848 217.957 321.508 218.672 322.352 219.164C323.196 219.648 324.176 219.891 325.293 219.891C326.02 219.891 326.676 219.789 327.262 219.586C327.856 219.375 328.368 219.063 328.797 218.648C329.227 218.227 329.559 217.703 329.793 217.078L332.465 217.828C332.184 218.734 331.711 219.531 331.047 220.219C330.383 220.898 329.563 221.43 328.586 221.812C327.61 222.188 326.512 222.375 325.293 222.375ZM337.613 222V204H340.285V206.812H340.52C340.895 205.852 341.5 205.105 342.336 204.574C343.172 204.035 344.176 203.766 345.348 203.766C346.535 203.766 347.524 204.035 348.313 204.574C349.11 205.105 349.731 205.852 350.176 206.812H350.363C350.824 205.883 351.516 205.145 352.438 204.598C353.36 204.043 354.465 203.766 355.754 203.766C357.363 203.766 358.68 204.27 359.703 205.277C360.727 206.277 361.238 207.836 361.238 209.953V222H358.473V209.953C358.473 208.625 358.11 207.676 357.383 207.105C356.656 206.535 355.801 206.25 354.817 206.25C353.551 206.25 352.571 206.633 351.875 207.398C351.18 208.156 350.832 209.117 350.832 210.281V222H348.02V209.672C348.02 208.648 347.688 207.824 347.024 207.199C346.36 206.566 345.504 206.25 344.457 206.25C343.738 206.25 343.067 206.441 342.442 206.824C341.824 207.207 341.324 207.738 340.942 208.418C340.567 209.09 340.379 209.867 340.379 210.75V222H337.613Z" fill="white"/>
<defs>
<linearGradient id="paint0_linear_144_112" x1="222.833" y1="26.8026" x2="169.638" y2="112.006" gradientUnits="userSpaceOnUse">
<stop stop-color="#0A1A3C"/>
<stop offset="0.490385" stop-color="#3E4361"/>
<stop offset="1" stop-color="#004797"/>
</linearGradient>
<linearGradient id="paint1_linear_144_112" x1="221.167" y1="63.6245" x2="207.576" y2="101.271" gradientUnits="userSpaceOnUse">
<stop stop-color="#3E4361"/>
<stop offset="1" stop-color="#194581"/>
</linearGradient>
<linearGradient id="paint2_linear_144_112" x1="224.5" y1="71.7114" x2="200.897" y2="96.7286" gradientUnits="userSpaceOnUse">
<stop stop-color="#66BFFF"/>
<stop offset="1" stop-color="#5386AC"/>
</linearGradient>
<linearGradient id="paint3_linear_144_112" x1="220.833" y1="79.7982" x2="210.067" y2="89.1176" gradientUnits="userSpaceOnUse">
<stop stop-color="#23C8E5"/>
<stop offset="1" stop-color="#C9E3F6"/>
</linearGradient>
</defs>
</svg>
