<svg width="516" height="133" viewBox="0 0 516 133" fill="none" xmlns="http://www.w3.org/2000/svg">
<rect x="8" y="8" width="112" height="117" rx="30" fill="white"/>
<path d="M20.0098 40.7334L54.0098 21.1899L54.0098 61.9455L20.0098 40.7334Z" fill="#0E8DEC"/>
<path d="M54.0098 61.9455L20.0098 40.7334V78.8095C19.7875 84.4254 23.2764 96.8704 39.0098 101.723C42.232 102.509 48.3333 103.744 54.0098 101.048V61.9455Z" fill="#004797"/>
<path d="M87 41.0697L54 21.1892L54 61.961L87 41.0697Z" fill="#283253"/>
<path d="M54 61.961L87 41.0697L87 59.6023C84.1111 58.7037 76.5333 58.9284 69.3333 67.0153C62.1333 75.1023 62.5556 84.537 63.6667 88.2436L65 92.287L54 101.048V61.961Z" fill="#3E4361"/>
<path d="M54 30.9611L46.3333 25.5698M54 30.9611L44.6667 36.826M54 30.9611L78.6667 47.135V60.4187M54 30.9611L61.6667 25.9068M30 86.222L29.3333 46.4611L44.6667 36.826M20 58.5916L47.3333 75.1156M66.6667 71.059L54 79.1459L47.3333 75.1156M44.6667 36.826L36.3333 31.2981M44.6667 36.826L51.922 41.4068M69 67.6132V52.1894L51.922 41.4068M75 33.9937L42.3333 54.5481V79.1459M42.3333 102.289V79.1459M42.3333 79.1459L34.6667 74.7655V69.7111M42.3333 79.1459L47.3333 82.1785M47.3333 75.1156V72.4068V77.1242M51.922 41.4068L47.3333 44.4394M51.922 41.4068L58.3333 37.3633" stroke="white" stroke-width="0.75"/>
<ellipse cx="2.33369" cy="2.35834" rx="2.33369" ry="2.35834" transform="matrix(0.992813 0.119672 -0.117148 0.993114 27.626 61.3618)" fill="white"/>
<ellipse cx="2.3362" cy="1.68276" rx="2.3362" ry="1.68276" transform="matrix(0.940989 0.338437 -0.332003 0.943278 50.4507 38.7109)" fill="white"/>
<path d="M71.6666 60.6132C71.6666 62.288 70.6568 63.6458 68.9999 63.6458C67.3333 63.9827 66.3333 62.288 66.3333 60.6132C66.3333 58.9383 67.3431 57.5806 68.9999 57.5806C70.6568 57.5806 71.6666 58.9383 71.6666 60.6132Z" fill="white"/>
<ellipse cx="30" cy="86.8961" rx="1" ry="1.01087" fill="white"/>
<ellipse cx="34.6667" cy="74.7653" rx="1" ry="1.01087" fill="white"/>
<ellipse cx="47.6667" cy="82.5153" rx="1" ry="1.01087" fill="white"/>
<ellipse cx="47.3333" cy="77.4611" rx="1" ry="1.01087" fill="white"/>
<ellipse cx="47.3333" cy="72.4069" rx="1" ry="1.01087" fill="white"/>
<ellipse cx="78.6667" cy="54.548" rx="1" ry="1.01087" fill="white"/>
<ellipse cx="34.6667" cy="70.048" rx="1" ry="1.01087" fill="white"/>
<ellipse cx="47" cy="44.4396" rx="1" ry="1.01087" fill="white"/>
<ellipse cx="58" cy="37.7003" rx="1" ry="1.01087" fill="white"/>
<ellipse cx="61" cy="35.3414" rx="1" ry="1.01087" fill="white"/>
<ellipse cx="49.6667" cy="33.6569" rx="1" ry="1.01087" fill="white"/>
<path d="M54.3334 106.446C42.3334 108.047 31.6667 101.644 24.6667 97.1612C30.0001 107.086 50.3334 120.854 75.3334 107.407C88.7256 100.203 85.8806 90.2608 96.6667 77.3106C100.667 72.508 100 46.254 100 35.3682H108L95.3334 20L82.0001 35.3682H89.3334C89.3334 75.7097 89.3334 65.4643 83.3334 83.3938C77.3334 101.323 62.751 105.323 54.3334 106.446Z" fill="url(#paint0_linear_144_58)"/>
<ellipse cx="87" cy="82.8528" rx="21" ry="21.2283" fill="url(#paint1_linear_144_58)"/>
<path d="M97 74.4288H92.3333V72.0701C92.3333 70.7728 91.2833 69.7114 90 69.7114H78.3333C77.05 69.7114 76 70.7728 76 72.0701V92.119C76 92.7677 76.525 93.2984 77.1667 93.2984H98.1667C98.8083 93.2984 99.3333 92.7677 99.3333 92.119V76.7875C99.3333 75.4902 98.2833 74.4288 97 74.4288ZM97 90.9397H78.3333V72.0701H90V75.6082C90 76.2568 90.525 76.7875 91.1667 76.7875H97V90.9397Z" fill="url(#paint2_linear_144_58)"/>
<path d="M85.3332 75.1025H87.6665V77.4612H85.3332V75.1025ZM80.6665 75.1025H82.9998V77.4612H80.6665V75.1025ZM80.6665 79.8199H82.9998V82.1786H80.6665V79.8199ZM85.3332 79.8199H87.6665V82.1786H85.3332V79.8199ZM92.3332 79.8199H94.6665V82.1786H92.3332V79.8199ZM85.3332 84.5373H87.6665V86.896H85.3332V84.5373ZM80.6665 84.5373H82.9998V86.896H80.6665V84.5373ZM92.3332 84.5373H94.6665V86.896H92.3332V84.5373Z" fill="url(#paint3_linear_144_58)"/>
<path d="M145.304 75.5V31.8636H173.259V38.4901H153.209V50.3366H171.341V56.9631H153.209V75.5H145.304ZM180.119 75.5V42.7727H187.832V75.5H180.119ZM183.997 38.1278C182.776 38.1278 181.724 37.723 180.844 36.9134C179.963 36.0895 179.523 35.1023 179.523 33.9517C179.523 32.7869 179.963 31.7997 180.844 30.9901C181.724 30.1662 182.776 29.7543 183.997 29.7543C185.233 29.7543 186.284 30.1662 187.151 30.9901C188.031 31.7997 188.472 32.7869 188.472 33.9517C188.472 35.1023 188.031 36.0895 187.151 36.9134C186.284 37.723 185.233 38.1278 183.997 38.1278ZM202.071 42.7727L208.676 54.8537L215.387 42.7727H223.548L213.683 59.1364L223.718 75.5H215.6L208.676 63.7173L201.815 75.5H193.633L203.605 59.1364L193.889 42.7727H202.071ZM242.772 76.1392C239.491 76.1392 236.657 75.4574 234.271 74.0938C231.898 72.7159 230.073 70.7699 228.795 68.2557C227.516 65.7273 226.877 62.7514 226.877 59.3281C226.877 55.9616 227.516 53.0071 228.795 50.4645C230.087 47.9077 231.891 45.919 234.207 44.4986C236.522 43.0639 239.242 42.3466 242.367 42.3466C244.384 42.3466 246.288 42.6733 248.077 43.3267C249.881 43.9659 251.472 44.9602 252.85 46.3097C254.242 47.6591 255.336 49.3778 256.131 51.4659C256.927 53.5398 257.325 56.0114 257.325 58.8807V61.2457H230.499V56.0469H249.931C249.917 54.5696 249.597 53.2557 248.972 52.1051C248.347 50.9403 247.474 50.0241 246.352 49.3565C245.244 48.6889 243.951 48.3551 242.474 48.3551C240.897 48.3551 239.512 48.7386 238.319 49.5057C237.126 50.2585 236.195 51.2528 235.528 52.4886C234.874 53.7102 234.54 55.0526 234.526 56.5156V61.054C234.526 62.9574 234.874 64.5909 235.57 65.9545C236.266 67.304 237.239 68.3409 238.489 69.0653C239.739 69.7756 241.202 70.1307 242.879 70.1307C244.001 70.1307 245.016 69.9744 245.925 69.6619C246.835 69.3352 247.623 68.8594 248.29 68.2344C248.958 67.6094 249.462 66.8352 249.803 65.9119L257.005 66.7216C256.55 68.625 255.684 70.2869 254.406 71.7074C253.141 73.1136 251.522 74.2074 249.548 74.9886C247.573 75.7557 245.315 76.1392 242.772 76.1392ZM275.995 76.0753C273.424 76.0753 271.123 75.4148 269.091 74.0938C267.06 72.7727 265.455 70.8551 264.276 68.3409C263.097 65.8267 262.507 62.7727 262.507 59.179C262.507 55.5426 263.104 52.4744 264.297 49.9744C265.505 47.4602 267.131 45.5639 269.176 44.2855C271.222 42.9929 273.502 42.3466 276.016 42.3466C277.934 42.3466 279.51 42.6733 280.746 43.3267C281.982 43.9659 282.962 44.7401 283.686 45.6491C284.411 46.544 284.972 47.3892 285.37 48.1847H285.689V31.8636H293.424V75.5H285.838V70.3438H285.37C284.972 71.1392 284.397 71.9844 283.644 72.8793C282.891 73.7599 281.897 74.5128 280.661 75.1378C279.425 75.7628 277.87 76.0753 275.995 76.0753ZM278.147 69.7472C279.78 69.7472 281.172 69.3068 282.323 68.4261C283.473 67.5312 284.347 66.2884 284.944 64.6974C285.54 63.1065 285.838 61.2528 285.838 59.1364C285.838 57.0199 285.54 55.1804 284.944 53.6179C284.361 52.0554 283.495 50.8409 282.344 49.9744C281.208 49.108 279.809 48.6747 278.147 48.6747C276.428 48.6747 274.993 49.1222 273.843 50.017C272.692 50.9119 271.826 52.1477 271.243 53.7244C270.661 55.3011 270.37 57.1051 270.37 59.1364C270.37 61.1818 270.661 63.0071 271.243 64.6122C271.84 66.2031 272.713 67.4602 273.864 68.3835C275.029 69.2926 276.456 69.7472 278.147 69.7472Z" fill="white"/>
<path d="M322.47 75.5H314.033L329.395 31.8636H339.153L354.537 75.5H346.099L334.445 40.8125H334.104L322.47 75.5ZM322.747 58.3906H345.759V64.7401H322.747V58.3906ZM385.283 51.4233L378.251 52.1903C378.053 51.4801 377.705 50.8125 377.207 50.1875C376.724 49.5625 376.071 49.0582 375.247 48.6747C374.423 48.2912 373.415 48.0994 372.222 48.0994C370.616 48.0994 369.267 48.4474 368.173 49.1435C367.094 49.8395 366.561 50.7415 366.575 51.8494C366.561 52.8011 366.909 53.5753 367.619 54.1719C368.344 54.7685 369.537 55.2585 371.199 55.642L376.781 56.8352C379.878 57.5028 382.179 58.5611 383.685 60.0099C385.205 61.4588 385.972 63.3551 385.986 65.6989C385.972 67.7585 385.368 69.5767 384.175 71.1534C382.996 72.7159 381.355 73.9375 379.253 74.8182C377.151 75.6989 374.736 76.1392 372.009 76.1392C368.003 76.1392 364.778 75.3011 362.335 73.625C359.892 71.9347 358.436 69.5838 357.967 66.5724L365.489 65.848C365.83 67.3253 366.554 68.4403 367.662 69.1932C368.77 69.946 370.212 70.3224 371.987 70.3224C373.82 70.3224 375.29 69.946 376.398 69.1932C377.52 68.4403 378.081 67.5099 378.081 66.402C378.081 65.4645 377.719 64.6903 376.994 64.0795C376.284 63.4687 375.176 63 373.67 62.6733L368.088 61.5014C364.949 60.848 362.626 59.7472 361.121 58.1989C359.615 56.6364 358.869 54.6619 358.884 52.2756C358.869 50.2585 359.416 48.5114 360.524 47.0341C361.646 45.5426 363.202 44.392 365.19 43.5824C367.193 42.7585 369.501 42.3466 372.115 42.3466C375.95 42.3466 378.969 43.1634 381.17 44.7969C383.386 46.4304 384.757 48.6392 385.283 51.4233ZM418.212 51.4233L411.181 52.1903C410.982 51.4801 410.634 50.8125 410.137 50.1875C409.654 49.5625 409.001 49.0582 408.177 48.6747C407.353 48.2912 406.344 48.0994 405.151 48.0994C403.546 48.0994 402.197 48.4474 401.103 49.1435C400.023 49.8395 399.491 50.7415 399.505 51.8494C399.491 52.8011 399.839 53.5753 400.549 54.1719C401.273 54.7685 402.467 55.2585 404.129 55.642L409.711 56.8352C412.808 57.5028 415.109 58.5611 416.614 60.0099C418.134 61.4588 418.901 63.3551 418.915 65.6989C418.901 67.7585 418.298 69.5767 417.104 71.1534C415.925 72.7159 414.285 73.9375 412.183 74.8182C410.08 75.6989 407.665 76.1392 404.938 76.1392C400.933 76.1392 397.708 75.3011 395.265 73.625C392.822 71.9347 391.366 69.5838 390.897 66.5724L398.418 65.848C398.759 67.3253 399.484 68.4403 400.592 69.1932C401.7 69.946 403.141 70.3224 404.917 70.3224C406.749 70.3224 408.219 69.946 409.327 69.1932C410.45 68.4403 411.011 67.5099 411.011 66.402C411.011 65.4645 410.648 64.6903 409.924 64.0795C409.214 63.4687 408.106 63 406.6 62.6733L401.018 61.5014C397.879 60.848 395.556 59.7472 394.05 58.1989C392.545 56.6364 391.799 54.6619 391.813 52.2756C391.799 50.2585 392.346 48.5114 393.454 47.0341C394.576 45.5426 396.131 44.392 398.12 43.5824C400.123 42.7585 402.431 42.3466 405.045 42.3466C408.88 42.3466 411.898 43.1634 414.1 44.7969C416.316 46.4304 417.687 48.6392 418.212 51.4233ZM439.764 76.1392C436.483 76.1392 433.649 75.4574 431.263 74.0938C428.891 72.7159 427.065 70.7699 425.787 68.2557C424.509 65.7273 423.869 62.7514 423.869 59.3281C423.869 55.9616 424.509 53.0071 425.787 50.4645C427.08 47.9077 428.884 45.919 431.199 44.4986C433.514 43.0639 436.234 42.3466 439.359 42.3466C441.376 42.3466 443.28 42.6733 445.07 43.3267C446.874 43.9659 448.464 44.9602 449.842 46.3097C451.234 47.6591 452.328 49.3778 453.124 51.4659C453.919 53.5398 454.317 56.0114 454.317 58.8807V61.2457H427.491V56.0469H446.923C446.909 54.5696 446.589 53.2557 445.964 52.1051C445.339 50.9403 444.466 50.0241 443.344 49.3565C442.236 48.6889 440.943 48.3551 439.466 48.3551C437.889 48.3551 436.504 48.7386 435.311 49.5057C434.118 50.2585 433.188 51.2528 432.52 52.4886C431.866 53.7102 431.533 55.0526 431.518 56.5156V61.054C431.518 62.9574 431.866 64.5909 432.562 65.9545C433.259 67.304 434.232 68.3409 435.482 69.0653C436.732 69.7756 438.195 70.1307 439.871 70.1307C440.993 70.1307 442.009 69.9744 442.918 69.6619C443.827 69.3352 444.615 68.8594 445.283 68.2344C445.95 67.6094 446.455 66.8352 446.795 65.9119L453.997 66.7216C453.543 68.625 452.676 70.2869 451.398 71.7074C450.134 73.1136 448.514 74.2074 446.54 74.9886C444.565 75.7557 442.307 76.1392 439.764 76.1392ZM477.184 42.7727V48.7386H458.37V42.7727H477.184ZM463.015 34.9318H470.728V65.6562C470.728 66.6932 470.885 67.4886 471.197 68.0426C471.524 68.5824 471.95 68.9517 472.475 69.1506C473.001 69.3494 473.583 69.4489 474.223 69.4489C474.706 69.4489 475.146 69.4134 475.544 69.3423C475.956 69.2713 476.268 69.2074 476.481 69.1506L477.781 75.1804C477.369 75.3224 476.779 75.4787 476.012 75.6491C475.26 75.8196 474.336 75.919 473.243 75.9474C471.311 76.0043 469.571 75.7131 468.022 75.0739C466.474 74.4205 465.245 73.4119 464.336 72.0483C463.441 70.6847 463.001 68.9801 463.015 66.9347V34.9318Z" fill="#0077FF"/>
<path d="M143.906 83.5H147.375L155.531 103.422H155.813L163.969 83.5H167.438V107.5H164.719V89.2656H164.484L156.984 107.5H154.359L146.859 89.2656H146.625V107.5H143.906V83.5ZM178.847 107.922C177.706 107.922 176.671 107.707 175.741 107.277C174.811 106.84 174.073 106.211 173.526 105.391C172.979 104.563 172.706 103.562 172.706 102.391C172.706 101.359 172.909 100.523 173.315 99.8828C173.722 99.2344 174.264 98.7266 174.944 98.3594C175.624 97.9922 176.374 97.7187 177.194 97.5391C178.022 97.3516 178.854 97.2031 179.69 97.0938C180.784 96.9531 181.671 96.8477 182.35 96.7773C183.038 96.6992 183.538 96.5703 183.85 96.3906C184.171 96.2109 184.331 95.8984 184.331 95.4531V95.3594C184.331 94.2031 184.014 93.3047 183.382 92.6641C182.757 92.0234 181.807 91.7031 180.534 91.7031C179.214 91.7031 178.179 91.9922 177.429 92.5703C176.679 93.1484 176.151 93.7656 175.847 94.4219L173.222 93.4844C173.69 92.3906 174.315 91.5391 175.097 90.9297C175.886 90.3125 176.745 89.8828 177.675 89.6406C178.612 89.3906 179.534 89.2656 180.44 89.2656C181.018 89.2656 181.682 89.3359 182.432 89.4766C183.19 89.6094 183.921 89.8867 184.624 90.3086C185.335 90.7305 185.925 91.3672 186.393 92.2187C186.862 93.0703 187.097 94.2109 187.097 95.6406V107.5H184.331V105.062H184.19C184.003 105.453 183.69 105.871 183.253 106.316C182.815 106.762 182.233 107.141 181.507 107.453C180.78 107.766 179.893 107.922 178.847 107.922ZM179.268 105.438C180.362 105.438 181.284 105.223 182.034 104.793C182.792 104.363 183.362 103.809 183.745 103.129C184.136 102.449 184.331 101.734 184.331 100.984V98.4531C184.214 98.5937 183.956 98.7227 183.557 98.8398C183.167 98.9492 182.714 99.0469 182.198 99.1328C181.69 99.2109 181.194 99.2812 180.71 99.3437C180.233 99.3984 179.847 99.4453 179.55 99.4844C178.831 99.5781 178.159 99.7305 177.534 99.9414C176.917 100.145 176.417 100.453 176.034 100.867C175.659 101.273 175.472 101.828 175.472 102.531C175.472 103.492 175.827 104.219 176.538 104.711C177.257 105.195 178.167 105.438 179.268 105.438ZM195.57 96.6719V107.5H192.804V89.5H195.476V92.3125H195.711C196.133 91.3984 196.773 90.6641 197.633 90.1094C198.492 89.5469 199.601 89.2656 200.961 89.2656C202.179 89.2656 203.246 89.5156 204.16 90.0156C205.074 90.5078 205.785 91.2578 206.293 92.2656C206.8 93.2656 207.054 94.5312 207.054 96.0625V107.5H204.289V96.25C204.289 94.8359 203.922 93.7344 203.187 92.9453C202.453 92.1484 201.445 91.75 200.164 91.75C199.281 91.75 198.492 91.9414 197.797 92.3242C197.109 92.707 196.566 93.2656 196.168 94C195.769 94.7344 195.57 95.625 195.57 96.6719ZM218.065 107.922C216.924 107.922 215.889 107.707 214.959 107.277C214.03 106.84 213.292 106.211 212.745 105.391C212.198 104.563 211.924 103.562 211.924 102.391C211.924 101.359 212.127 100.523 212.534 99.8828C212.94 99.2344 213.483 98.7266 214.163 98.3594C214.842 97.9922 215.592 97.7187 216.413 97.5391C217.241 97.3516 218.073 97.2031 218.909 97.0938C220.002 96.9531 220.889 96.8477 221.569 96.7773C222.256 96.6992 222.756 96.5703 223.069 96.3906C223.389 96.2109 223.549 95.8984 223.549 95.4531V95.3594C223.549 94.2031 223.233 93.3047 222.6 92.6641C221.975 92.0234 221.026 91.7031 219.752 91.7031C218.432 91.7031 217.397 91.9922 216.647 92.5703C215.897 93.1484 215.37 93.7656 215.065 94.4219L212.44 93.4844C212.909 92.3906 213.534 91.5391 214.315 90.9297C215.104 90.3125 215.963 89.8828 216.893 89.6406C217.831 89.3906 218.752 89.2656 219.659 89.2656C220.237 89.2656 220.901 89.3359 221.651 89.4766C222.409 89.6094 223.139 89.8867 223.842 90.3086C224.553 90.7305 225.143 91.3672 225.612 92.2187C226.081 93.0703 226.315 94.2109 226.315 95.6406V107.5H223.549V105.062H223.409C223.221 105.453 222.909 105.871 222.471 106.316C222.034 106.762 221.452 107.141 220.725 107.453C219.999 107.766 219.112 107.922 218.065 107.922ZM218.487 105.438C219.581 105.438 220.502 105.223 221.252 104.793C222.01 104.363 222.581 103.809 222.963 103.129C223.354 102.449 223.549 101.734 223.549 100.984V98.4531C223.432 98.5937 223.174 98.7227 222.776 98.8398C222.385 98.9492 221.932 99.0469 221.417 99.1328C220.909 99.2109 220.413 99.2812 219.928 99.3437C219.452 99.3984 219.065 99.4453 218.768 99.4844C218.049 99.5781 217.377 99.7305 216.752 99.9414C216.135 100.145 215.635 100.453 215.252 100.867C214.877 101.273 214.69 101.828 214.69 102.531C214.69 103.492 215.045 104.219 215.756 104.711C216.475 105.195 217.385 105.438 218.487 105.438ZM239.288 114.625C237.952 114.625 236.804 114.453 235.843 114.109C234.882 113.773 234.081 113.328 233.441 112.773C232.808 112.227 232.304 111.641 231.929 111.016L234.132 109.469C234.382 109.797 234.699 110.172 235.081 110.594C235.464 111.023 235.988 111.395 236.652 111.707C237.324 112.027 238.202 112.187 239.288 112.187C240.742 112.187 241.941 111.836 242.886 111.133C243.831 110.43 244.304 109.328 244.304 107.828V104.172H244.07C243.867 104.5 243.578 104.906 243.202 105.391C242.835 105.867 242.304 106.293 241.609 106.668C240.921 107.035 239.992 107.219 238.82 107.219C237.367 107.219 236.062 106.875 234.906 106.188C233.757 105.5 232.847 104.5 232.175 103.187C231.511 101.875 231.179 100.281 231.179 98.4062C231.179 96.5625 231.503 94.957 232.152 93.5898C232.8 92.2148 233.702 91.1523 234.859 90.4023C236.015 89.6445 237.351 89.2656 238.867 89.2656C240.038 89.2656 240.968 89.4609 241.656 89.8516C242.351 90.2344 242.882 90.6719 243.249 91.1641C243.624 91.6484 243.913 92.0469 244.117 92.3594H244.398V89.5H247.07V108.016C247.07 109.562 246.718 110.82 246.015 111.789C245.32 112.766 244.382 113.48 243.202 113.934C242.031 114.395 240.726 114.625 239.288 114.625ZM239.195 104.734C240.304 104.734 241.242 104.48 242.007 103.973C242.773 103.465 243.355 102.734 243.753 101.781C244.152 100.828 244.351 99.6875 244.351 98.3594C244.351 97.0625 244.156 95.918 243.765 94.9258C243.374 93.9336 242.796 93.1562 242.031 92.5937C241.265 92.0312 240.32 91.75 239.195 91.75C238.023 91.75 237.046 92.0469 236.265 92.6406C235.492 93.2344 234.91 94.0312 234.519 95.0313C234.136 96.0312 233.945 97.1406 233.945 98.3594C233.945 99.6094 234.14 100.715 234.531 101.676C234.929 102.629 235.515 103.379 236.288 103.926C237.07 104.465 238.038 104.734 239.195 104.734ZM260.339 107.875C258.605 107.875 257.109 107.492 255.851 106.727C254.601 105.953 253.636 104.875 252.956 103.492C252.284 102.102 251.948 100.484 251.948 98.6406C251.948 96.7969 252.284 95.1719 252.956 93.7656C253.636 92.3516 254.581 91.25 255.792 90.4609C257.011 89.6641 258.433 89.2656 260.058 89.2656C260.995 89.2656 261.921 89.4219 262.835 89.7344C263.749 90.0469 264.581 90.5547 265.331 91.2578C266.081 91.9531 266.679 92.875 267.124 94.0234C267.57 95.1719 267.792 96.5859 267.792 98.2656V99.4375H253.917V97.0469H264.98C264.98 96.0312 264.777 95.125 264.37 94.3281C263.972 93.5312 263.402 92.9023 262.659 92.4414C261.925 91.9805 261.058 91.75 260.058 91.75C258.956 91.75 258.003 92.0234 257.198 92.5703C256.402 93.1094 255.788 93.8125 255.359 94.6797C254.929 95.5469 254.714 96.4766 254.714 97.4687V99.0625C254.714 100.422 254.948 101.574 255.417 102.52C255.894 103.457 256.554 104.172 257.398 104.664C258.241 105.148 259.222 105.391 260.339 105.391C261.066 105.391 261.722 105.289 262.308 105.086C262.902 104.875 263.413 104.563 263.843 104.148C264.273 103.727 264.605 103.203 264.839 102.578L267.511 103.328C267.23 104.234 266.757 105.031 266.093 105.719C265.429 106.398 264.609 106.93 263.632 107.312C262.655 107.688 261.558 107.875 260.339 107.875ZM272.659 107.5V89.5H275.331V92.3125H275.565C275.94 91.3516 276.546 90.6055 277.382 90.0742C278.218 89.5352 279.222 89.2656 280.394 89.2656C281.581 89.2656 282.569 89.5352 283.358 90.0742C284.155 90.6055 284.776 91.3516 285.222 92.3125H285.409C285.87 91.3828 286.562 90.6445 287.483 90.0977C288.405 89.543 289.511 89.2656 290.8 89.2656C292.409 89.2656 293.726 89.7695 294.749 90.7773C295.773 91.7773 296.284 93.3359 296.284 95.4531V107.5H293.519V95.4531C293.519 94.125 293.155 93.1758 292.429 92.6055C291.702 92.0352 290.847 91.75 289.862 91.75C288.597 91.75 287.616 92.1328 286.921 92.8984C286.226 93.6562 285.878 94.6172 285.878 95.7812V107.5H283.065V95.1719C283.065 94.1484 282.733 93.3242 282.069 92.6992C281.405 92.0664 280.55 91.75 279.503 91.75C278.784 91.75 278.112 91.9414 277.487 92.3242C276.87 92.707 276.37 93.2383 275.987 93.918C275.612 94.5898 275.425 95.3672 275.425 96.25V107.5H272.659ZM309.548 107.875C307.813 107.875 306.317 107.492 305.059 106.727C303.809 105.953 302.845 104.875 302.165 103.492C301.493 102.102 301.157 100.484 301.157 98.6406C301.157 96.7969 301.493 95.1719 302.165 93.7656C302.845 92.3516 303.79 91.25 305.001 90.4609C306.22 89.6641 307.641 89.2656 309.266 89.2656C310.204 89.2656 311.13 89.4219 312.044 89.7344C312.958 90.0469 313.79 90.5547 314.54 91.2578C315.29 91.9531 315.888 92.875 316.333 94.0234C316.778 95.1719 317.001 96.5859 317.001 98.2656V99.4375H303.126V97.0469H314.188C314.188 96.0312 313.985 95.125 313.579 94.3281C313.181 93.5312 312.61 92.9023 311.868 92.4414C311.134 91.9805 310.266 91.75 309.266 91.75C308.165 91.75 307.212 92.0234 306.407 92.5703C305.61 93.1094 304.997 93.8125 304.567 94.6797C304.138 95.5469 303.923 96.4766 303.923 97.4687V99.0625C303.923 100.422 304.157 101.574 304.626 102.52C305.102 103.457 305.763 104.172 306.606 104.664C307.45 105.148 308.431 105.391 309.548 105.391C310.274 105.391 310.931 105.289 311.516 105.086C312.11 104.875 312.622 104.563 313.052 104.148C313.481 103.727 313.813 103.203 314.048 102.578L316.72 103.328C316.438 104.234 315.966 105.031 315.302 105.719C314.638 106.398 313.817 106.93 312.841 107.312C311.864 107.688 310.766 107.875 309.548 107.875ZM324.634 96.6719V107.5H321.868V89.5H324.54V92.3125H324.774C325.196 91.3984 325.837 90.6641 326.696 90.1094C327.555 89.5469 328.665 89.2656 330.024 89.2656C331.243 89.2656 332.309 89.5156 333.223 90.0156C334.137 90.5078 334.848 91.2578 335.356 92.2656C335.864 93.2656 336.118 94.5312 336.118 96.0625V107.5H333.352V96.25C333.352 94.8359 332.985 93.7344 332.251 92.9453C331.516 92.1484 330.509 91.75 329.227 91.75C328.344 91.75 327.555 91.9414 326.86 92.3242C326.173 92.707 325.63 93.2656 325.231 94C324.833 94.7344 324.634 95.625 324.634 96.6719ZM349.66 89.5V91.8437H340.332V89.5H349.66ZM343.05 85.1875H345.816V102.344C345.816 103.125 345.929 103.711 346.156 104.102C346.39 104.484 346.687 104.742 347.046 104.875C347.414 105 347.8 105.062 348.207 105.062C348.511 105.062 348.761 105.047 348.957 105.016C349.152 104.977 349.308 104.945 349.425 104.922L349.988 107.406C349.8 107.477 349.539 107.547 349.203 107.617C348.867 107.695 348.441 107.734 347.925 107.734C347.144 107.734 346.378 107.566 345.628 107.23C344.886 106.895 344.269 106.383 343.777 105.695C343.293 105.008 343.05 104.141 343.05 103.094V85.1875ZM377.921 89.5C377.781 88.3125 377.21 87.3906 376.21 86.7344C375.21 86.0781 373.984 85.75 372.531 85.75C371.468 85.75 370.538 85.9219 369.741 86.2656C368.952 86.6094 368.335 87.082 367.89 87.6836C367.452 88.2852 367.234 88.9687 367.234 89.7344C367.234 90.375 367.386 90.9258 367.691 91.3867C368.003 91.8398 368.402 92.2187 368.886 92.5234C369.37 92.8203 369.878 93.0664 370.409 93.2617C370.941 93.4492 371.429 93.6016 371.874 93.7187L374.312 94.375C374.937 94.5391 375.632 94.7656 376.398 95.0547C377.171 95.3437 377.909 95.7383 378.613 96.2383C379.323 96.7305 379.909 97.3633 380.37 98.1367C380.831 98.9102 381.062 99.8594 381.062 100.984C381.062 102.281 380.722 103.453 380.042 104.5C379.37 105.547 378.386 106.379 377.089 106.996C375.8 107.613 374.234 107.922 372.39 107.922C370.671 107.922 369.183 107.645 367.925 107.09C366.675 106.535 365.691 105.762 364.972 104.77C364.261 103.777 363.859 102.625 363.765 101.312H366.765C366.843 102.219 367.148 102.969 367.679 103.562C368.218 104.148 368.898 104.586 369.718 104.875C370.546 105.156 371.437 105.297 372.39 105.297C373.499 105.297 374.495 105.117 375.378 104.758C376.261 104.391 376.96 103.883 377.476 103.234C377.991 102.578 378.249 101.813 378.249 100.937C378.249 100.141 378.027 99.4922 377.581 98.9922C377.136 98.4922 376.55 98.0859 375.823 97.7734C375.097 97.4609 374.312 97.1875 373.468 96.9531L370.515 96.1094C368.64 95.5703 367.156 94.8008 366.062 93.8008C364.968 92.8008 364.421 91.4922 364.421 89.875C364.421 88.5312 364.784 87.3594 365.511 86.3594C366.245 85.3516 367.23 84.5703 368.464 84.0156C369.706 83.4531 371.093 83.1719 372.624 83.1719C374.171 83.1719 375.546 83.4492 376.749 84.0039C377.952 84.5508 378.906 85.3008 379.609 86.2539C380.32 87.207 380.695 88.2891 380.734 89.5H377.921ZM387.906 114.25C387.438 114.25 387.02 114.211 386.652 114.133C386.285 114.063 386.031 113.992 385.891 113.922L386.594 111.484C387.266 111.656 387.859 111.719 388.375 111.672C388.891 111.625 389.348 111.395 389.746 110.98C390.152 110.574 390.524 109.914 390.859 109L391.375 107.594L384.719 89.5H387.719L392.688 103.844H392.875L397.844 89.5H400.844L393.203 110.125C392.859 111.055 392.434 111.824 391.926 112.434C391.418 113.051 390.828 113.508 390.156 113.805C389.492 114.102 388.742 114.25 387.906 114.25ZM417.904 93.5312L415.42 94.2344C415.264 93.8203 415.033 93.418 414.728 93.0273C414.432 92.6289 414.025 92.3008 413.51 92.043C412.994 91.7852 412.334 91.6562 411.529 91.6562C410.428 91.6562 409.51 91.9102 408.775 92.418C408.049 92.918 407.685 93.5547 407.685 94.3281C407.685 95.0156 407.935 95.5586 408.435 95.957C408.935 96.3555 409.717 96.6875 410.779 96.9531L413.451 97.6094C415.06 98 416.26 98.5977 417.049 99.4023C417.838 100.199 418.232 101.227 418.232 102.484C418.232 103.516 417.935 104.437 417.342 105.25C416.756 106.062 415.935 106.703 414.881 107.172C413.826 107.641 412.6 107.875 411.201 107.875C409.365 107.875 407.846 107.477 406.642 106.68C405.439 105.883 404.678 104.719 404.357 103.187L406.982 102.531C407.232 103.5 407.705 104.227 408.4 104.711C409.103 105.195 410.021 105.438 411.154 105.438C412.443 105.438 413.467 105.164 414.225 104.617C414.99 104.062 415.373 103.398 415.373 102.625C415.373 102 415.154 101.477 414.717 101.055C414.279 100.625 413.607 100.305 412.701 100.094L409.701 99.3906C408.053 99 406.842 98.3945 406.068 97.5742C405.303 96.7461 404.92 95.7109 404.92 94.4687C404.92 93.4531 405.205 92.5547 405.775 91.7734C406.353 90.9922 407.139 90.3789 408.131 89.9336C409.131 89.4883 410.264 89.2656 411.529 89.2656C413.31 89.2656 414.709 89.6562 415.725 90.4375C416.748 91.2187 417.475 92.25 417.904 93.5312ZM430.884 89.5V91.8437H421.555V89.5H430.884ZM424.274 85.1875H427.04V102.344C427.04 103.125 427.153 103.711 427.38 104.102C427.614 104.484 427.911 104.742 428.27 104.875C428.637 105 429.024 105.062 429.43 105.062C429.735 105.062 429.985 105.047 430.18 105.016C430.376 104.977 430.532 104.945 430.649 104.922L431.212 107.406C431.024 107.477 430.762 107.547 430.427 107.617C430.091 107.695 429.665 107.734 429.149 107.734C428.368 107.734 427.602 107.566 426.852 107.23C426.11 106.895 425.493 106.383 425.001 105.695C424.516 105.008 424.274 104.141 424.274 103.094V85.1875ZM443.057 107.875C441.323 107.875 439.827 107.492 438.569 106.727C437.319 105.953 436.354 104.875 435.674 103.492C435.003 102.102 434.667 100.484 434.667 98.6406C434.667 96.7969 435.003 95.1719 435.674 93.7656C436.354 92.3516 437.299 91.25 438.51 90.4609C439.729 89.6641 441.151 89.2656 442.776 89.2656C443.713 89.2656 444.639 89.4219 445.553 89.7344C446.467 90.0469 447.299 90.5547 448.049 91.2578C448.799 91.9531 449.397 92.875 449.842 94.0234C450.288 95.1719 450.51 96.5859 450.51 98.2656V99.4375H436.635V97.0469H447.698C447.698 96.0312 447.495 95.125 447.088 94.3281C446.69 93.5312 446.12 92.9023 445.378 92.4414C444.643 91.9805 443.776 91.75 442.776 91.75C441.674 91.75 440.721 92.0234 439.917 92.5703C439.12 93.1094 438.506 93.8125 438.077 94.6797C437.647 95.5469 437.432 96.4766 437.432 97.4687V99.0625C437.432 100.422 437.667 101.574 438.135 102.52C438.612 103.457 439.272 104.172 440.116 104.664C440.96 105.148 441.94 105.391 443.057 105.391C443.784 105.391 444.44 105.289 445.026 105.086C445.62 104.875 446.131 104.563 446.561 104.148C446.991 103.727 447.323 103.203 447.557 102.578L450.229 103.328C449.948 104.234 449.475 105.031 448.811 105.719C448.147 106.398 447.327 106.93 446.35 107.312C445.374 107.688 444.276 107.875 443.057 107.875ZM455.377 107.5V89.5H458.049V92.3125H458.284C458.659 91.3516 459.264 90.6055 460.1 90.0742C460.936 89.5352 461.94 89.2656 463.112 89.2656C464.299 89.2656 465.288 89.5352 466.077 90.0742C466.873 90.6055 467.495 91.3516 467.94 92.3125H468.127C468.588 91.3828 469.28 90.6445 470.202 90.0977C471.123 89.543 472.229 89.2656 473.518 89.2656C475.127 89.2656 476.444 89.7695 477.467 90.7773C478.491 91.7773 479.002 93.3359 479.002 95.4531V107.5H476.237V95.4531C476.237 94.125 475.873 93.1758 475.147 92.6055C474.42 92.0352 473.565 91.75 472.581 91.75C471.315 91.75 470.334 92.1328 469.639 92.8984C468.944 93.6562 468.596 94.6172 468.596 95.7812V107.5H465.784V95.1719C465.784 94.1484 465.452 93.3242 464.788 92.6992C464.123 92.0664 463.268 91.75 462.221 91.75C461.502 91.75 460.831 91.9414 460.206 92.3242C459.588 92.707 459.088 93.2383 458.706 93.918C458.331 94.5898 458.143 95.3672 458.143 96.25V107.5H455.377Z" fill="white"/>
<defs>
<linearGradient id="paint0_linear_144_58" x1="93.3334" y1="24.8026" x2="40.138" y2="110.006" gradientUnits="userSpaceOnUse">
<stop stop-color="#0A1A3C"/>
<stop offset="0.490385" stop-color="#3E4361"/>
<stop offset="1" stop-color="#004797"/>
</linearGradient>
<linearGradient id="paint1_linear_144_58" x1="91.6667" y1="61.6245" x2="78.0755" y2="99.2706" gradientUnits="userSpaceOnUse">
<stop stop-color="#3E4361"/>
<stop offset="1" stop-color="#194581"/>
</linearGradient>
<linearGradient id="paint2_linear_144_58" x1="95" y1="69.7114" x2="71.3968" y2="94.7286" gradientUnits="userSpaceOnUse">
<stop stop-color="#66BFFF"/>
<stop offset="1" stop-color="#5386AC"/>
</linearGradient>
<linearGradient id="paint3_linear_144_58" x1="91.3332" y1="77.7982" x2="80.5666" y2="87.1176" gradientUnits="userSpaceOnUse">
<stop stop-color="#23C8E5"/>
<stop offset="1" stop-color="#C9E3F6"/>
</linearGradient>
</defs>
</svg>
